<mxfile host="app.diagrams.net" agent="Mozilla/5.0 (Windows NT 10.0; Win64; x64) AppleWebKit/537.36 (KHTML, like Gecko) Chrome/128.0.0.0 Safari/537.36" version="24.7.17">
  <diagram name="第 1 页" id="7UJenC19HOIE5kEgkeHc">
    <mxGraphModel dx="2514" dy="2047" grid="1" gridSize="10" guides="1" tooltips="1" connect="1" arrows="1" fold="1" page="1" pageScale="1" pageWidth="827" pageHeight="1169" math="0" shadow="0">
      <root>
        <mxCell id="0" />
        <mxCell id="1" parent="0" />
        <mxCell id="eoro2AQ4aJLVT_-DZN7c-3" style="edgeStyle=orthogonalEdgeStyle;rounded=0;orthogonalLoop=1;jettySize=auto;html=1;entryX=0;entryY=0.5;entryDx=0;entryDy=0;" parent="1" source="eoro2AQ4aJLVT_-DZN7c-1" target="eoro2AQ4aJLVT_-DZN7c-2" edge="1">
          <mxGeometry relative="1" as="geometry" />
        </mxCell>
        <mxCell id="eoro2AQ4aJLVT_-DZN7c-1" value="编译完成后" style="rounded=0;whiteSpace=wrap;html=1;" parent="1" vertex="1">
          <mxGeometry x="-80" y="230" width="120" height="60" as="geometry" />
        </mxCell>
        <mxCell id="eoro2AQ4aJLVT_-DZN7c-2" value="修改带有Commond,TargetRpc,ClientRpc标签的函数到IL代码" style="rounded=0;whiteSpace=wrap;html=1;" parent="1" vertex="1">
          <mxGeometry x="190" y="230" width="390" height="60" as="geometry" />
        </mxCell>
        <mxCell id="eoro2AQ4aJLVT_-DZN7c-6" value="&lt;h1 style=&quot;margin-top: 0px;&quot;&gt;&lt;div style=&quot;background-color:#262626;color:#d0d0d0&quot;&gt;&lt;pre style=&quot;font-family:&#39;JetBrains Mono&#39;,monospace;font-size:9.8pt;&quot;&gt;&lt;span style=&quot;color: rgb(133, 196, 108);&quot;&gt;// generates code like:&lt;br&gt;&lt;/span&gt;&lt;span style=&quot;color: rgb(133, 196, 108);&quot;&gt;public void CmdThrust(float thrusting, int spin)&lt;br&gt;&lt;/span&gt;&lt;span style=&quot;color: rgb(133, 196, 108);&quot;&gt;{&lt;br&gt;&lt;/span&gt;&lt;span style=&quot;color: rgb(133, 196, 108);&quot;&gt;    NetworkWriter networkWriter = new NetworkWriter();&lt;br&gt;&lt;/span&gt;&lt;span style=&quot;color: rgb(133, 196, 108);&quot;&gt;    networkWriter.Write(thrusting);&lt;br&gt;&lt;/span&gt;&lt;span style=&quot;color: rgb(133, 196, 108);&quot;&gt;    networkWriter.WritePackedUInt32((uint)spin);&lt;br&gt;&lt;/span&gt;&lt;span style=&quot;color: rgb(133, 196, 108);&quot;&gt;    base.SendCommandInternal(cmdName, networkWriter, cmdName);&lt;br&gt;&lt;/span&gt;&lt;span style=&quot;color: rgb(133, 196, 108);&quot;&gt;}&lt;br&gt;&lt;/span&gt;&lt;span style=&quot;color: rgb(133, 196, 108);&quot;&gt;&lt;br&gt;&lt;/span&gt;&lt;span style=&quot;color: rgb(133, 196, 108);&quot;&gt;public void CallCmdThrust(float thrusting, int spin)&lt;br&gt;&lt;/span&gt;&lt;span style=&quot;color: rgb(133, 196, 108);&quot;&gt;{&lt;br&gt;&lt;/span&gt;&lt;span style=&quot;color: rgb(133, 196, 108);&quot;&gt;    // whatever the user was doing before&lt;br&gt;&lt;/span&gt;&lt;span style=&quot;color: rgb(133, 196, 108);&quot;&gt;}&lt;br&gt;&lt;/span&gt;&lt;span style=&quot;color: rgb(133, 196, 108);&quot;&gt;&lt;br&gt;&lt;/span&gt;&lt;span style=&quot;color: rgb(133, 196, 108);&quot;&gt;Originally HLAPI put the send message code inside the Call function&lt;br&gt;&lt;/span&gt;&lt;span style=&quot;color: rgb(133, 196, 108);&quot;&gt;and then proceeded to replace every call to CmdTrust with CallCmdTrust&lt;br&gt;&lt;/span&gt;&lt;span style=&quot;color: rgb(133, 196, 108);&quot;&gt;&lt;br&gt;&lt;/span&gt;&lt;span style=&quot;color: rgb(133, 196, 108);&quot;&gt;This method moves all the user&#39;s code into the &quot;CallCmd&quot; method&lt;br&gt;&lt;/span&gt;&lt;span style=&quot;color: rgb(133, 196, 108);&quot;&gt;and replaces the body of the original method with the send message code.&lt;br&gt;&lt;/span&gt;&lt;span style=&quot;color: rgb(133, 196, 108);&quot;&gt;This way we do not need to modify the code anywhere else,  and this works&lt;br&gt;&lt;/span&gt;&lt;span style=&quot;color: rgb(133, 196, 108);&quot;&gt;correctly in dependent assemblies&lt;/span&gt;&lt;/pre&gt;&lt;/div&gt;&lt;/h1&gt;" style="text;html=1;whiteSpace=wrap;overflow=hidden;rounded=0;" parent="1" vertex="1">
          <mxGeometry x="720" y="-450" width="580" height="370" as="geometry" />
        </mxCell>
        <mxCell id="eoro2AQ4aJLVT_-DZN7c-7" value="&lt;h1 style=&quot;margin-top: 0px;&quot;&gt;&lt;div style=&quot;background-color:#262626;color:#d0d0d0&quot;&gt;&lt;pre style=&quot;font-family:&#39;JetBrains Mono&#39;,monospace;font-size:9.8pt;&quot;&gt;&lt;span style=&quot;color: rgb(133, 196, 108);&quot;&gt;/* generates code like:&lt;br&gt;&lt;/span&gt;&lt;span style=&quot;color: rgb(133, 196, 108);&quot;&gt;    public void TargetTest (NetworkConnection conn, int param)&lt;br&gt;&lt;/span&gt;&lt;span style=&quot;color: rgb(133, 196, 108);&quot;&gt;    {&lt;br&gt;&lt;/span&gt;&lt;span style=&quot;color: rgb(133, 196, 108);&quot;&gt;        NetworkWriter writer = new NetworkWriter ();&lt;br&gt;&lt;/span&gt;&lt;span style=&quot;color: rgb(133, 196, 108);&quot;&gt;        writer.WritePackedUInt32 ((uint)param);&lt;br&gt;&lt;/span&gt;&lt;span style=&quot;color: rgb(133, 196, 108);&quot;&gt;        base.SendTargetRPCInternal (conn, typeof(class), &quot;TargetTest&quot;, val);&lt;br&gt;&lt;/span&gt;&lt;span style=&quot;color: rgb(133, 196, 108);&quot;&gt;    }&lt;br&gt;&lt;/span&gt;&lt;span style=&quot;color: rgb(133, 196, 108);&quot;&gt;    public void CallTargetTest (NetworkConnection conn, int param)&lt;br&gt;&lt;/span&gt;&lt;span style=&quot;color: rgb(133, 196, 108);&quot;&gt;    {&lt;br&gt;&lt;/span&gt;&lt;span style=&quot;color: rgb(133, 196, 108);&quot;&gt;        // whatever the user did before&lt;br&gt;&lt;/span&gt;&lt;span style=&quot;color: rgb(133, 196, 108);&quot;&gt;    }&lt;br&gt;&lt;/span&gt;&lt;span style=&quot;color: rgb(133, 196, 108);&quot;&gt;&lt;br&gt;&lt;/span&gt;&lt;span style=&quot;color: rgb(133, 196, 108);&quot;&gt;    or if optional:&lt;br&gt;&lt;/span&gt;&lt;span style=&quot;color: rgb(133, 196, 108);&quot;&gt;    public void TargetTest (int param)&lt;br&gt;&lt;/span&gt;&lt;span style=&quot;color: rgb(133, 196, 108);&quot;&gt;    {&lt;br&gt;&lt;/span&gt;&lt;span style=&quot;color: rgb(133, 196, 108);&quot;&gt;        NetworkWriter writer = new NetworkWriter ();&lt;br&gt;&lt;/span&gt;&lt;span style=&quot;color: rgb(133, 196, 108);&quot;&gt;        writer.WritePackedUInt32 ((uint)param);&lt;br&gt;&lt;/span&gt;&lt;span style=&quot;color: rgb(133, 196, 108);&quot;&gt;        base.SendTargetRPCInternal (null, typeof(class), &quot;TargetTest&quot;, val);&lt;br&gt;&lt;/span&gt;&lt;span style=&quot;color: rgb(133, 196, 108);&quot;&gt;    }&lt;br&gt;&lt;/span&gt;&lt;span style=&quot;color: rgb(133, 196, 108);&quot;&gt;    public void CallTargetTest (int param)&lt;br&gt;&lt;/span&gt;&lt;span style=&quot;color: rgb(133, 196, 108);&quot;&gt;    {&lt;br&gt;&lt;/span&gt;&lt;span style=&quot;color: rgb(133, 196, 108);&quot;&gt;        // whatever the user did before&lt;br&gt;&lt;/span&gt;&lt;span style=&quot;color: rgb(133, 196, 108);&quot;&gt;    }&lt;br&gt;&lt;/span&gt;&lt;span style=&quot;color: rgb(133, 196, 108);&quot;&gt;&lt;br&gt;&lt;/span&gt;&lt;span style=&quot;color: rgb(133, 196, 108);&quot;&gt;    Originally HLAPI put the send message code inside the Call function&lt;br&gt;&lt;/span&gt;&lt;span style=&quot;color: rgb(133, 196, 108);&quot;&gt;    and then proceeded to replace every call to TargetTest with CallTargetTest&lt;br&gt;&lt;/span&gt;&lt;span style=&quot;color: rgb(133, 196, 108);&quot;&gt;&lt;br&gt;&lt;/span&gt;&lt;span style=&quot;color: rgb(133, 196, 108);&quot;&gt;    This method moves all the user&#39;s code into the &quot;CallTargetRpc&quot; method&lt;br&gt;&lt;/span&gt;&lt;span style=&quot;color: rgb(133, 196, 108);&quot;&gt;    and replaces the body of the original method with the send message code.&lt;br&gt;&lt;/span&gt;&lt;span style=&quot;color: rgb(133, 196, 108);&quot;&gt;    This way we do not need to modify the code anywhere else,  and this works&lt;br&gt;&lt;/span&gt;&lt;span style=&quot;color: rgb(133, 196, 108);&quot;&gt;    correctly in dependent assemblies&lt;/span&gt;&lt;/pre&gt;&lt;/div&gt;&lt;/h1&gt;" style="text;html=1;whiteSpace=wrap;overflow=hidden;rounded=0;" parent="1" vertex="1">
          <mxGeometry x="715" y="-70" width="630" height="510" as="geometry" />
        </mxCell>
        <mxCell id="eoro2AQ4aJLVT_-DZN7c-8" value="&lt;h1 style=&quot;margin-top: 0px;&quot;&gt;&lt;div style=&quot;background-color:#262626;color:#d0d0d0&quot;&gt;&lt;pre style=&quot;font-family:&#39;JetBrains Mono&#39;,monospace;font-size:9.8pt;&quot;&gt;&lt;span style=&quot;color: rgb(133, 196, 108);&quot;&gt;/*&lt;br&gt;&lt;/span&gt;&lt;span style=&quot;color: rgb(133, 196, 108);&quot;&gt; * generates code like:&lt;br&gt;&lt;/span&gt;&lt;span style=&quot;color: rgb(133, 196, 108);&quot;&gt;&lt;br&gt;&lt;/span&gt;&lt;span style=&quot;color: rgb(133, 196, 108);&quot;&gt;    public void RpcTest (int param)&lt;br&gt;&lt;/span&gt;&lt;span style=&quot;color: rgb(133, 196, 108);&quot;&gt;    {&lt;br&gt;&lt;/span&gt;&lt;span style=&quot;color: rgb(133, 196, 108);&quot;&gt;        NetworkWriter writer = new NetworkWriter ();&lt;br&gt;&lt;/span&gt;&lt;span style=&quot;color: rgb(133, 196, 108);&quot;&gt;        writer.WritePackedUInt32((uint)param);&lt;br&gt;&lt;/span&gt;&lt;span style=&quot;color: rgb(133, 196, 108);&quot;&gt;        base.SendRPCInternal(typeof(class),&quot;RpcTest&quot;, writer, 0);&lt;br&gt;&lt;/span&gt;&lt;span style=&quot;color: rgb(133, 196, 108);&quot;&gt;    }&lt;br&gt;&lt;/span&gt;&lt;span style=&quot;color: rgb(133, 196, 108);&quot;&gt;    public void CallRpcTest (int param)&lt;br&gt;&lt;/span&gt;&lt;span style=&quot;color: rgb(133, 196, 108);&quot;&gt;    {&lt;br&gt;&lt;/span&gt;&lt;span style=&quot;color: rgb(133, 196, 108);&quot;&gt;        // whatever the user did before&lt;br&gt;&lt;/span&gt;&lt;span style=&quot;color: rgb(133, 196, 108);&quot;&gt;    }&lt;br&gt;&lt;/span&gt;&lt;span style=&quot;color: rgb(133, 196, 108);&quot;&gt;&lt;br&gt;&lt;/span&gt;&lt;span style=&quot;color: rgb(133, 196, 108);&quot;&gt;    Originally HLAPI put the send message code inside the Call function&lt;br&gt;&lt;/span&gt;&lt;span style=&quot;color: rgb(133, 196, 108);&quot;&gt;    and then proceeded to replace every call to RpcTest with CallRpcTest&lt;br&gt;&lt;/span&gt;&lt;span style=&quot;color: rgb(133, 196, 108);&quot;&gt;&lt;br&gt;&lt;/span&gt;&lt;span style=&quot;color: rgb(133, 196, 108);&quot;&gt;    This method moves all the user&#39;s code into the &quot;CallRpc&quot; method&lt;br&gt;&lt;/span&gt;&lt;span style=&quot;color: rgb(133, 196, 108);&quot;&gt;    and replaces the body of the original method with the send message code.&lt;br&gt;&lt;/span&gt;&lt;span style=&quot;color: rgb(133, 196, 108);&quot;&gt;    This way we do not need to modify the code anywhere else,  and this works&lt;br&gt;&lt;/span&gt;&lt;span style=&quot;color: rgb(133, 196, 108);&quot;&gt;    correctly in dependent assemblies&lt;br&gt;&lt;/span&gt;&lt;span style=&quot;color: rgb(133, 196, 108);&quot;&gt;*/&lt;/span&gt;&lt;/pre&gt;&lt;/div&gt;&lt;/h1&gt;" style="text;html=1;whiteSpace=wrap;overflow=hidden;rounded=0;" parent="1" vertex="1">
          <mxGeometry x="720" y="480" width="620" height="370" as="geometry" />
        </mxCell>
        <mxCell id="eoro2AQ4aJLVT_-DZN7c-9" value="transform 同步" style="text;html=1;align=center;verticalAlign=middle;whiteSpace=wrap;rounded=0;" parent="1" vertex="1">
          <mxGeometry x="-90" y="840" width="110" height="30" as="geometry" />
        </mxCell>
        <mxCell id="eoro2AQ4aJLVT_-DZN7c-11" style="edgeStyle=orthogonalEdgeStyle;rounded=0;orthogonalLoop=1;jettySize=auto;html=1;" parent="1" source="eoro2AQ4aJLVT_-DZN7c-10" edge="1">
          <mxGeometry relative="1" as="geometry">
            <mxPoint x="-90" y="925" as="targetPoint" />
          </mxGeometry>
        </mxCell>
        <mxCell id="eoro2AQ4aJLVT_-DZN7c-10" value="NetworkTransformBase" style="text;html=1;align=center;verticalAlign=middle;whiteSpace=wrap;rounded=0;" parent="1" vertex="1">
          <mxGeometry x="-330" y="910" width="150" height="30" as="geometry" />
        </mxCell>
        <mxCell id="eoro2AQ4aJLVT_-DZN7c-16" style="edgeStyle=orthogonalEdgeStyle;rounded=0;orthogonalLoop=1;jettySize=auto;html=1;entryX=0;entryY=0.5;entryDx=0;entryDy=0;" parent="1" source="eoro2AQ4aJLVT_-DZN7c-12" target="eoro2AQ4aJLVT_-DZN7c-15" edge="1">
          <mxGeometry relative="1" as="geometry" />
        </mxCell>
        <mxCell id="eoro2AQ4aJLVT_-DZN7c-12" value="Update" style="text;html=1;align=center;verticalAlign=middle;whiteSpace=wrap;rounded=0;" parent="1" vertex="1">
          <mxGeometry x="-90" y="910" width="60" height="30" as="geometry" />
        </mxCell>
        <mxCell id="eoro2AQ4aJLVT_-DZN7c-20" value="" style="edgeStyle=orthogonalEdgeStyle;rounded=0;orthogonalLoop=1;jettySize=auto;html=1;" parent="1" source="eoro2AQ4aJLVT_-DZN7c-15" target="eoro2AQ4aJLVT_-DZN7c-19" edge="1">
          <mxGeometry relative="1" as="geometry" />
        </mxCell>
        <mxCell id="eoro2AQ4aJLVT_-DZN7c-15" value="&lt;div style=&quot;background-color:#262626;color:#d0d0d0&quot;&gt;&lt;pre style=&quot;font-family:&#39;JetBrains Mono&#39;,monospace;font-size:9.8pt;&quot;&gt;CmdClientToServerSync&lt;/pre&gt;&lt;/div&gt;" style="text;html=1;align=center;verticalAlign=middle;whiteSpace=wrap;rounded=0;" parent="1" vertex="1">
          <mxGeometry x="100" y="910" width="150" height="30" as="geometry" />
        </mxCell>
        <mxCell id="eoro2AQ4aJLVT_-DZN7c-17" value="一定频率100ms，状态改变时" style="text;html=1;align=center;verticalAlign=middle;whiteSpace=wrap;rounded=0;" parent="1" vertex="1">
          <mxGeometry x="-20" y="880" width="110" height="30" as="geometry" />
        </mxCell>
        <mxCell id="eoro2AQ4aJLVT_-DZN7c-19" value="设置这个transform的基础信息，同时置为Dirty，在下次ServerUpdate时广播给其他人" style="whiteSpace=wrap;html=1;" parent="1" vertex="1">
          <mxGeometry x="430" y="892.5" width="210" height="65" as="geometry" />
        </mxCell>
        <mxCell id="eoro2AQ4aJLVT_-DZN7c-21" value="上面的改代码成发送消息发送到server的这个函数" style="text;html=1;align=center;verticalAlign=middle;whiteSpace=wrap;rounded=0;" parent="1" vertex="1">
          <mxGeometry x="270" y="880" width="140" height="30" as="geometry" />
        </mxCell>
        <mxCell id="Z938SgGXtIkL-qlpoMnn-1" value="" style="shape=image;verticalLabelPosition=bottom;labelBackgroundColor=default;verticalAlign=top;aspect=fixed;imageAspect=0;image=data:image/png,iVBORw0KGgoAAAANSUhEUgAAAuwAAADXCAIAAADOYJPsAAAgAElEQVR4Aey9j1tbV3rve/6TZSfOr21P+/THbdV2PIfnVG3mnmlV2tSHyz32UbmmHOJLqRUuqWMzDgl0BHlSGMZAGnxIBhsNIgG7oDwZjE2dAdkFgwFHxgIZY/OjwmAwQt5oS9r6cW2/6XvWrC1tZFBseebV4yfZ7L32Wu/6rHe967vXWlv6T4w+RIAIEAEiQASIABF4Dgn8p+fQZjKZCBABIkAEiAARIAKMRAw5AREgAkSACBABIvBcEiAR81w2GxlNBIgAESACRIAIkIghHyACRIAIEAEiQASeSwIkYp7LZiOjiQARIAJEgAgQARIx5ANEgAgQASJABIjAc0mARMxz2WxkNBEgAkSACBABIkAihnyACBABIkAEiAAReC4JkIh5LpuNjCYCRIAIEAEiQARIxJAPEAEiQASIABEgAs8lARIxz2WzkdFEgAgQASJABIgAiRjyASJABIgAESACROC5JEAi5rlsNjKaCBABIkAEiAARIBFDPkAEiAARIAJEgAg8lwRIxDyXzUZGEwEiQASIABEgAiRiyAeIABEgAkSACBCB55IAiZjnstnIaCJABIgAESACRODXRcQYDIaWlhaXy9Xf32+xWLbZ8Lm5uYuLi3HuY7fbMc/s7OzOzs6JiYmenp4DBw7g+Uw7sFgs/f39LperpaXFYDBkmnlkDxEgAkSACBABfQLflojJyck5c+bM7du3ZVmORCLxeFxVVZ/P9/XXXzc0NDzlIVOSpPHx8VgsBqojGAzW1tbqc9G/qiNisrOzb9++jfLG5/OVlpbq5/ZMrlqt1o2NDbTzxo0bWVlZz8QSKpQIEAEiQASIwNYIpF/EZGdnDwwMqKqKA6T2wO/3f/rpp5Ikbc3oJ73LYrHIssybMTIy8qSZ8Ol1RExdXV04HObLcjgc/L0Zcux0OnkjNzY2jh8/niG2kRlEgAgQASJABFIhkGYRU1paurKywo+OyY5jsVh/f//T0TG/niJmfHxc5j4tLS28Q5CI4WnQMREgAkSACDyPBNIpYsxms9frTaZatOdjsdjTmaXIysq6ceMGGhAMBuvr67fTWjozMbm5uTyE9fX1o0ePbqesLd/r8XiwyvF4nN+1wxirra0NBoOYwO12G43GLZdFNxIBIkAEiAARePoE0iliHA4H7juB0TEYDA4ODtbX15eWltpstps3bwoJHu6YKSsrewrVzs7O7u7udrvdLperqqpqmyXqiBjG2IEDBy5evOh2u0dGRt5+++1tlrXl2/VFDGOssrJybGzM7Xb39vZmZ2dvuSC6kQgQASJABIjAMyGQNhFjMpnm5+fxyT4ejy8tLeXn5wu16ujogH2+mLK3t1dIk/l/6ouYDLF/UxGTIXaSGUSACBABIkAEtkYgbSKmuLjY7/ejNInH4wmXiiRJmpqa4pNNT08n3BkjSVJRUdGpU6c6OztPnTpVVFSUMFmyahcXF9vt9lOnTpnN5mRptOcNBoPFYoFC7Xb7O++8k3CR5VmJmBTNg3qlS8SYTKb333//888/7+zsrK+vz8vL03LTP2Mymaqrqzs7O+12+1tvvfVE7aifM10lAkSACBCBX2cCaRMx2s2zwiYMpCxsKV1cXMzNzcWrjLHs7Ox//dd/DQQCvNaJx+PBYHBgYEBY+BDeBvJ4PGaz+datW7hu5XQ6U9Ecb7/99uTkpDBLFI/HI5HI5OSksCqkk6HAIRwO19XVMcYEO4WqCX/iXYgldfMEvELO8Xjc4/Ewxux2O39J2wqMsaqqqoWFBSSJ6f1+/5kzZ7TvyfOyCapw+PDhqakpIYen/G4aMqQDIkAEiAAR+BUjkDYRs3///qWlJRzn4vH41NRUwmkMfYJWq9Xn8/H5CMdra2vl5eWYiSAOZmdn+X218Xh8UxEjSdKFCxf03wkPBoP82z1PU8Q8qXlpETFGo3FwcFAQH0JDeL3ew4cPY0MwxgQRc/78eeHNdswhEol0dHTw99IxESACRIAIEIEnJZA2EcMYc7lcOErBwezsrDCHoW9fTU2NoihCJto/+Vd+BBETjUaFoXdTEXPu3DnhFm2J8XhcURTcEfw0RcyTmrd9EZOVlTU6OpoKE6/Xy6/W8SImIUP+5NraWlFRkb4/0FUiQASIABEgAjoE0iliqqqqtBIkFostLCycOnVq01kZ4eVkGPAURZFlWZvttWvXYGuFIGL4YRKO9UVMWVmZMFuwtrZ24cKFzs5Ol8slTM9cv34dCv22Rczc3Bysmm3BPJj/kGVZMB5IyrI8Pj6uv5zU3t4uLKvFYrGNjQ1tnvF4nP+q34QiJhQKybIcCAQEVRSLxdrb23Vcky4RASJABIgAEdAnkE4RwxjTvnyEqiISiczPz//zP/+zdi8FmNjV1cWPc+FwuL29HUSDJEmnT5/mv9ckGAxWV1cn22uiqqrX63W73R6P5+c//7mO5nA4HGhhPB6/e/cuP7Vw9uzZaDSKCfx+f3FxMWNMJ8Nke2KSNYPRaBR2OvPzTFszD8oSJIWwRSnZnhiz2Xzv3j2sMjDB6bTs7OwrV67wzaSqamNjY8ISI5FIT08PNnd5efn6+jqf8za/NzkZUjpPBIgAESACvyYE0ixiGGM2m41XG/ygBceyLGu3hWrf0HY6nUIbCAsl8G62dibG7XYLm391NIfNZnNzH2FuoLS0lJ+nwf22Ohk+kYiRJGlgYEDQBCdPnsSKb808uH1rIqalpYXXbRsbG/wOJMaY0WicmZnhm9XlciUscXR0VHgRSWhB2GKMlaUDIkAEiAARIAJPRCD9Iga+7c3lcvFjMz/mwbGwLfT48eP87xEm/CmfEydO8D9L5Ha7tTMxq6urhYWFAgIdzSGkFP5Mpkh0Mkx2i5Az/Hny5El+0ScWiw0MDAgDf8Ib4aR+WVsTMSMjI3xj4Qoab0ZraysvdJaWlvbv3y9s7IUt1fxd2jUsr9e7b98+IQ39SQSIABEgAkQgRQLfioiBsgsKCgYGBrRvSuMYya+bCBMAPp/P4XB0/vLH6XTyQz4MgcJMTMJXhXU0B4/JZDLV19dfuHABp2amp6f5EtM7E3P06FFheUX/fa7UzYNKbUHESJI0PT2NDZTsy34ExSnLMvxSt1Cidi4t2RoW3wp0TASIABEgAkQgRQLfoogBCyRJqqiouHbtGj+JgsOk1+uFL4kRhjdMoHMAeiUtIubdd9+9c+eO/tRRPB5Po4jJzs6em5vja8dLOqHxntQ8uF2QFKnsiUlR7QlfbIhYhBJJxAjtSH8SASJABIhAegl86yIGzTUajQ6HQ9guE41GW1tbtQsN/Oie7DhdIqajo4OfbklWXBpFjHYrjM5vUm7BPGAuSIotiBhUJ9iIcCBoHUwmlEgiRuBGfxIBIkAEiEB6CTw9EQN2a9dQYGvLs5qJEX7MOR6Py7J8+fJlWMg6d+4cr7pwtBZGcf43ovX3qQAE4R1mna0wWzMPShEkxRZETDQa5b/iDz0vWR2FEknEIDE6IAJEgAgQgW+DQHpEzL59+7Tfk5vM3MuXL/OzHTChYrPZ+NWc5eXlh2/kWnQ/hYWFkiRtczlJ+II+j8fDv9mUbLTejohJKOOSfYnO1swD8oKkSEXEaPfEJPxeXWFPDO7CFkokEZOsC9B5IkAEiAARSAuB9IgYxpjb7ealye3bt7OyshKaKLxnCyKmpqYmFAphDvg1MAlz4E9uR8QIP5WgqmpTUxOfedpFjNlsFtSez+eDXbF8uXC8ZfPgdkFSpCJiGGOCxEzl7aSVlZWDBw9u4e0kaHptxekMESACRIAIEIFUCKRNxGi/qq6hoUFrgfZbRkDuaOc23G63dn5CkqTPP/+cH4+3I2KSaRQ0O73fE/NEW2EYY1s2D+wXRIwwpyKs36GeEF4T2873xNBMDDoSHRABIkAEiMC3QSBtIqa4uFj44cZgMOhwOEwmE9pdUFAwMTHBLxvx3yZy/vx5/lIsFvN4PAUFBfzt8PUz/DbY7YiYgwcPrqys4PRPPB6/dOkSfk1Ldnb2+Pg4b9I298QIX2cci8XOnz+PtdMebNk8yEoQMcL728lETBq/sZdEjLZN6QwRIAJEgAikkUDaREyy3xyIxWKBQCDh7x/F43H+QV+71BKPx/FXe4Qf3/H7/VarVftldzijwDPSTvPAXI4kScJX/sdisaWlJbfbPTMzo30nfDsi5tixY36/nxdM+sdOp3PL5kHdha+ti8fj8DNGs7Ozubm5yUQMY0zYd8y3gvY1Lp3fTiIRwzshHRMBIkAEiEDaCaRTxEiS1N/fz09d6I/TkUhEWOPQbnpNlgN+q8p2ZmIYY9rXf5KVCOdB/SRTRTprQIJo0C8FJ6i2Zh54ibAwhCWCzhPs4cWfdtkL7xUO7t27Z7FY0CmFuR8SMUiGDogAESACRODbIJBOEcMYe7gW8+mnn6Yy5RAMBtva2nDtBut27Nix5eVlYbAU/lxeXj527Bjcsk0Rk2wCCUqUZXltbY0vHQbmpyZitmYekDEajcJua6jIpiIGfiBpcHBQX48KPxxBG3vRh+mACBABIkAEng6BNIsYMNpoNNrt9uXl5YSjoCzLAwMDBw4cSFZDg8Fw5swZn88n3B6LxdbW1j777DP8YeRtLiehAVVVVYK1sVhsZmbm7bffFjYs37t3z2w2P00Rwxh7UvOwXjk5OdeuXYtEIrwOS0XEQA5VVVULCwtCK8Tjcb/fr/0JTxIxiJ0OiAARIAJE4OkQ+FZEDJpuNBqLi4ubm5s7OztPnTpVWloKPzKACfQPcnNz33//fXgd6ejRo/weYf0bt3Y1Nze3urq6s7Ozurr62y5rCxZu2TyTyQQYm5ubi4qKeAmYihlGo/Gdd96x2+2ff/75+++//0QtmEr+lIYIEAEiQASIwNYIfLsiZms20V1EgAgQASJABIgAEdiUAImYTRFRAiJABIgAESACRCATCZCIycRWIZuIABEgAkSACBCBTQmQiNkUESUgAkSACBABIkAEMpEAiZhMbBWyiQgQASJABIgAEdiUAImYTRFRAiJABIgAESACRCATCZCIycRWIZuIABEgAkSACBCBTQmQiNkUESUgAkSACBABIkAEMpEAiZhMbBWyiQgQASJABIgAEdiUAImYTRFRAiJABIgAESACRCATCZCIycRWIZuIABEgAkSACBCBTQmQiNkUESUgAkSACBABIkAEMpEAiZhMbBWyiQgQASJABIgAEdiUAImYTRFRAiJABIgAESACRCATCZCIycRWIZuIABEgAkSACBCBTQmQiNkUESUgAkSACBABIkAEMpEAiZhMbBWyiQgQASJABIgAEdiUAImYTRFRAiJABIgAESACRCATCZCIycRWIZuIABEgAkSACBCBTQmQiNkUESUgAkSACBABIkAEMpEAiZhMbBWyiQgQASJABIgAEdiUAImYTRFRAiJABIgAESACRCATCZCIycRWIZuIABEgAkSACBCBTQmQiNkUESUgAkSACBABIkAEMpEAiZhMbBWyiQgQASJABIgAEdiUAImYTRFRAiJABIgAESACRCATCZCIycRWIZuIABEgAkSACBCBTQmQiNkUESUgAkSACBABIkAEMpEAiZhMbBWyiQgQASJABIgAEdiUAImYTRFRAiJABIgAESACRCATCZCIycRWIZuIABEgAkSACBCBTQmQiNkUESUgAkSACBABIkAEMpEAiZhMbBWyiQgQASJABIgAEdiUAImYTRFRAiJABIgAESACRCATCZCIycRWIZuIABEgAkSACBCBTQmQiNkUESUgAkSACBABIkAEMpEAiZhMbBWyiQhkDgGj0VhcXGwymTLHJLKECBABIgAE0iNiGhoaOhN9Pvvss/z8fLvdLsuyxWLRQq+oqDh37lx2drb20q/5madJpq6uTpblurq6tDDPzc1dXFx0Op1bzk3HYbacp/6NR44c6e3tdblcdrs9JydHP7H2qiRJbW1tp06d0l7iz9jt9nA4DJzT2L4pls5bkvpxR0eHqqrxeHw7DSoU53Q6FxcXc3NzhfMp/ple9zh8+PCFCxfy8/NTLP3pJ9v5G1kv/dfj8G+X8fDO3Yb02sDnjwXBwQu/95fpLYtyIwJpJ5AeETM+Pi4//mxsbMRisVAoBH/ev3//gw8+0Ak6/f39iqJYrda0V+x5zzBFMrW1taOjo3l5edup7/ZFjM1mGxgYgIf1DBQxeXl5o6OjtbW1WkpGo3F8fDwajQYCAVmWQ6FQOBxua2vTptQ5s2/fPq/XOz8/rz9dwYuYFNs3WaE88BRLT5aVzvmSkpIHDx5MTk7m5ORkZWXppNS/JHhpRokYm80WiURaWlr0q/AMr+56/R/2VEZ3H/ft/uHK7nJ5T2X0tb+7svM7ezc1acerv/OKueOFP9hELO764+JHOT/+t+f94J4KdfcPV+HPl/7qx5uWQgmIwLMlkB4Rg3WwWCyyLAsPbToixmAwvPHGG3g7HSCBFMnosMWsNj3Yvojhh6UMFDHglna7XYuitbVVVdWzZ8/CJaPR6Ha7ZVkuKyvTJtY58/rrrxuNRp0EjDFexKTYvsky5IEzxlIpPVlWOufr6urC4XBCbjp3aS8JXioYr02vf0bITT/xplclSdq3b9+myZ5hgl2v/8Pu8o0X/nA/2PDC7/2V9Pbt1yzXd7zy2/pW7fzO93aX3dv1+j/oJ+OvvvbmL6S3bux4+Tf5k3RMBDKZwNMTMcePH+/u7na73RcvXjxw4ABAsVqtNpsNl5MsFkt/f7/b7e7v70+4/FRSUmKz2YqLiy9evOh2u7u7u/FexpjRaLTb7RMTEy6Xq6GhQZIkRH/gwAG8paSk5Gc/+xlOIOOlnp4eNAxvhIPs7Gw0vri42GazlZSUwCVJkurq6sbGxlwuV0tLi8HwS5O9FotlcHBwYmKis7OTN3XTmvJkrFZrc3NzQUEBViH78cdms42OjgaDwXPnzjU0NIA9Bw4c6Onp0WGIyTC3jz/+mF9OMhgMbW1tExMTV65cKS8vRwI2m+3IkSNwaXBwEBooPz//s88+m56e9vl8DofDarWiiKmsrAQsQltAhowxSZKqqqrGxsaEpoRRqrKyEi3k0RkMhpaWFpfLNTY2VldXh63ME2OM5efnQys3NDScO3cuGAyOjo7yzgZmOJ1OYa3zxIkT/Mid0D3AD48fPz44ONjT05OVldXc3IxNoFMvXE5Ca+FeYTEW5yZzcnIcDofb7R4bG6usrIR6CcCF0hljCX0Aklmt1k3bBchYrVan06mqKs8tmbdnZ2fbbLby8vLu7m5+ahDOC14KIqakpCRh+yYEjj4DWlCW5WTuoRMEEna6kpISWPWGIrKzszs7OycmJhA4nEevS9jNIQ3C0fb3hH0K7koWIuAqY0wQMYyxF37/r3e/u/7SX374TZoXXt71+j+8+rc9rxz84sW9f8PYDsbYi3v/5uW/qtlT/uAVc+euPylhux4Hw0QpsSDGmCBiXvjdP9v1/Xd2SL+HBb34X/7uURG7pF1/UrLzN/9415+WPip3f+vO73yPz2fnd773yv7WV/+256X/evyboh9f3vmd772c0/Tq3/a+nNMk3MLfTsdEIHUCT0nEhMNhn8+3uLg4MzOjqqrX64UVcX4IqampURRlbW1tcnLS7/cHg8H6+nqhJna7PRKJKIoy+/gTiUS8Xq/ZbGaMmc1mr9cbCAQ8Hs/c3Fw0Gh0YGIARrrS09P79++FweGZmZnFxMRgMKooCWxNqa2tlWYZCHw5m6+vrR48eFQrNzc2dn5+PRCJQqKIokUgEHk+NRuONGzdUVZ2dnYWqzczMgD2Msba2tlAotLS05PF4gsEgmppKTXkyTqdzY2NDluXZ2dm5ublYLHbjxo133nlndHTU6/Wqqjo9Pd3T08MY+8lPfqIoit/vn5ycXFtbS7YyogPEbDbPzMwEg0GPx7O0tKSqakdHB2MMJjMCgcDq6qrH4wkEAtBAx44d+/rrr1dXVxVFmZqastlsIGLu378vy7LH41lbW4tEIu3t7QJVSZIGBgYAncAHWjkYDM7NzaHDYCsvLCxAU0Irj4+PwxQIT4wxhtNLPT0909PT4HX8+Ar2dHV1RSKR7u5uFEO8ncncAywMhUKBQGB8fByq7PF4QJnp1AtFDFq7b9++W7duwfIrrGfF4/He3l7G2NGjR9fX16E1sS2SAYfSdXwgxXbB6ttstjt37kSjUa/XC9x0vB3cQ1EUcPiioiLIBxbyBC9N6M+wXJUMOFoFIiYSiSRzj2RBIFmn46fHIIaA8y8uLqqqev78ecZYVlbW9evXVVWdmZmZnZ2NRCJut1s78fbVV19FIhFw2nA4jP09WZ/SCRF8fbUiZscu6bW/H3vt74bYCy/teOW3X7Nc333c99qbv3jt70d3V6iv5DYztuOlv/zw1Tf7d7+nvHb461fMHTte/Z1kKfmyRBHz+3+9p/zBS3/+j5AGxNOuP3sf5nh2H/c9mhN68xe7j/v2lD948buP4vAj1fWnpbvL5ddKJl978xd7ymWcNHrhD/6vR7ccmX/1f/ZJR+/yt8CN9F8isAUCT0nERCIRGAsZY11dXcFgsKam5uHcCYZyxpjL5VpZWTl48CBjrKCgYGVlxe12C1Wy2+2qqn766adwHnYddnV1Mca6u7tXVlaOHz8OA8no6Oja2tqhQ4cYY0NDQxsbGz/60Y9wjAmFQnV1ddnZ2RBxIB5BoUNDQ0KhXV1d4XCYLxRFDCxGYNXq6+sVRYHAV1RUtLa2Njw8DKNjeXm5LMtgaio15ck4nU5e0g0NDfn9/uLiYnwqhUmR7OzshYUFDJ2wMrK2toYjCtYLgMAsC4gJAMIYO3/+vCzLeGl4ePjevXtmsxlGqatXr8JUE4yvt27dgrGHXyCAwRLNMJvN9+7d0zZleXn56uoqruN88skn4XAYtiaARECqJ0+eDIfDgK6vr49H0dHRgXfxxHgRgwos4bIIDMzRaHR1dbWnp6egoAAp6biH3W6PRqMofXgRo18vrYjB4lCII7rBwcH5+XkwyWg03rlzB7fdaIGDiNHxgRTbhbdHWE7S8XZwD4/Hw8+ZYVbCAlAyf9YBjlmhiEnoHjpBIFmn40UM9Kxjx45BoLh06dKDBw9KSkqsVquiKA6HA8xwOBwYwdCwQ4cOra2tjYyMwBlwWpvNptOndEIEZptwJoafMnnpzyqkt2d2/tb3H9+y4xVz5+53FnZIj+aDheUknZRYnCBi2CO1NA5qiTH20l/V7v7h6s7feh1yftXcsWPni49mhn7rT6V3vK8ecj4SVXv+SDoy/8r/aIcJoRd+5we7f7i668/ef6jYXjn4hfT2zI7XfveRbdLvS2/ferXgAhZNB0RgawSekojhZ+zr6uoURYHhih94hoaGgsFgU1NTwmdiqJ4QDffv37+0tCQMkLm5uRaL5YsvvoBCYdvj9PQ0ZovP6DU1NcFgkJ8kcLlc2vcm3G730tLS/v3frElDvIYR0e128+klSZqenoaRxmazoTJgjJlMpvn5eRhpUqkpT4YfsSCI425oHoi2OidOnAgGg8KmRQAyNTWlBaK91NLSArNWfK2hLS5fvoxaircQBkt+X5TH48HRV+um8AZvTU2NLMtAla8UYwyscrvdWvPAAVwulyCIUxcxMFw1NDTAZFssFpuZmTl8+DBjTMsT3UOwkBcxWMGE9dIRMSA6E84F5uXlWSyW4eFhdDYtcHAtrc3oA0/aLsCQX1nT8XateyAHQWpDS2FFeH/WGo/AdXJD9+DTCEEAnmQShhcUMcAHfAmywhXJsrIyWZZhgzNfCn8MYt3r9QrPDFqnxT6lEyL4nLUzMbyIwZQ7Xv7Nnd/53kt/UbW77B6s1AgiRiclXhJFzDfC5f7O3/o+TP+AUtHm/Mr/3SIdvbtzz3d3/UnJnnIZd/B8M2n05i8eiZj9P3s0+/KfC0DfYKF0QAS2Q+DZiBiMjPxQnZOT43K5YrGYqqpzc3MJN1IIgwdjzPP4Axti+vv7w+FwLBbb2NhQFAVEDIxz/JiKIsZms8Visfgvf/jwCiPc9PQ0ztXzj/UJhy4cXfr7+38540d/QT6p1JQng3lCS2PYFYYH/jykTDi06AApLi72+/2C2TDuarPi24K3MOFgKVAF85qbm30+XzweVxQF3mtLKGKglaenp48cOaLdNo4OwBN7IhGD/cdkMnV0dMDyYlFRkY578HVnjAmeoFMvHRFz9uxZXLwDk3Jycq5duxZ5/IGVJsSoBQ6upeMDqbcLAuFnYoQ6Qho0Q+semIngpQlFDGDRAa6TG7qHJElGozFhEGCMJet0SAyqwAcKvtDm5ma/3x+LxR48eDAwMJBw81xFRcXKyko8HodFRpgf1elTOiGCL3oTEfPCyy/nNO1+L/DoDaYfru5+159UxCRPicVpRczO3/r+7h/ef+nP//Hxwequ7x/RzvF8M130WDy9/N8+3vOPceHfa49FzI6Xf+OVg1/sqYzueT/42t+P4vYdLJ0OiMAWCGSQiAHrTSbTRx99dPPmzWg02t/fL1RJGDyysrJu374N4burq0tRlNOnT8MEA6aE4IvTvPzw1tTUpCiKzWazcJ/CwkKcooDSPR7P7du38RVTjNdQOj/HwxgbGRmBkcbhcGxsbPz4xz/m8rbw70Lr15QfknGoAHsw7ArDQ1NTUyAQOHHiBEI7fvz4xsaGsIwCQC5fvozJUNUdPHhwZWVldHSUt7m4uNhoNGKt8S6Hw4ETbLyFKQ6W8HR75coVWIDg88e2g7KwlcE83nK8tLWZGEmSCgsL+UZhjH3yySeqqtpsNh33ECzkB3j9eiUTMbAQibu4oOKwuvHhh9/s3+Qh88d86To+kGK7YPsKMzH63s43H58DHAu4eOPBhwGLDnA+TyE33geSBQG8XdvpsDfBehDvXXgXHEiS9NZbb/X29sqy7PP5SktLhQTwZ2Fh4ZkzZ1ZXV4PBYG1trcycWyQAACAASURBVE6f2jREQIZaEbPjtd+V3p555eAXj9TDn72/+13/LqMFpjceJU4yE6OTEiuiFTHshZdePeR87e+GXvqL6t3v/PvOPd9NKGJe+vN/hHIfHfzw/ot/+N93fud7+G/Hq7+DRezYJb34vYOvvdm/u0J9OacJz9MBEdgagUwRMTk5OYODg7iyA+syXq9XePsR4heGj+LiYp/PBwLF4/HgcypjDIfYrKysW7duLSws4Gr9iRMn4GUcGOP7+vqQncFgEBQMTET7fD7Yg8IYKy0txYWPoaEh/hJMKcNKTVNTUzgcbm1tFTJPsaZbEDEwfPLV6erq4pe0wBIdIDAe8KwkSYJNMDBK4UYESZKuX7+Oe5j4YSnFwRIHD7CK11t2u/3hxAxsb2KMYStrLYcqw9MztDj6BrYyP3mGbQEHsMbH15cxhm8n6biHMI7yMkK/XglFjNlsvnv3Lu52B9v4POEM6mNhMoNPqeMDKbYLj4ifidF2BN7b0yJidIDzViVzD5iSSRgEdDodthc4/507d3DHrtVqHR8fP3bs2Mcff/xwEz3ulzpx4kQoFIL9LmhYZWXl+Pj4u+++C2cgSvT39+v0qWQhAvOEA42I2fHSX1TveT+064//XruuhGJCKzUEgcKnxBKFNN8Y8EgnrUtH5l7N/xKk0jfLSf8nfg3Bjlfzv4T9Li/+54Ld5Ru7/uQtzPPxvpkdj6Zh/vtpmMh5fGnHq2/2P9rz+9IeTEkHRGALBDJFxEiSdO3aNb/fX1tbazAYqqqq1tfXr1+/LkgKu90ei8WuXbtmNpsPHDjwcIkBHncYY319feFwuL293WKxnDlzBpeTHnbmlpYWVVWHh4cPHjxYXl5+9+5dGEug0GAwaLPZDAZDWVnZ7OzstWvX9u79pS+SqqqqUhRlenq6+PFneno6Ho/D9EZ5efnGxsb09HRBQUFOTs7w8LCiKPBSFexSxBp9+OGHq6urfX19KdY0dREDO51NJpMkScPDw1CdvXv31tbW+v3+hK9RJAPCs8p5/Ll06dLKygpMzMiyvLKyUllZuXfv3p6eHlVVcaoM3jexWq2vv/56ioNldXV1MBi8evVqaWlpTU3N3bt3kardbo/H47Ozsw8bq7Cw0O12YyvDfsnh4eGcnJyCgoLp6WncRNLY2BgOhy9fvmwymSoqKrCVUcRcvXrVZDIJ78C3t7erqjoxMfH2228bjcaKiorZ2dn19fUjR47ouIeOiNGvl1bE4DfTNDY24gRYXl4eyERZlhsbG0tLS/v6+lRVxRFaCxzmI3V8QKddioqKlpaWhL1TwkwMY0zH2zcVMeilggLjZ2J0gPOhTcc9kgUBnU6HIgacPxwOnzt3zmg0lpWVobKsqqoKBALgdSaT6d/+7d8URamuruatgl26EAqMRmN3d7eqqvAMg91N6FPJQgSf7TcrNe8FdhktO7/zvRe/a3614Dy+gsQYe/mv6x+Jhu8febQh5gflj74T75dnYh5tv90l7dj5ok5KLDGhiNm557u73/n33RUqShMQMY82FP8ff8F2vvjSX3645/3QN9Mqu6TXiq9KR+++8Ae5O3a++ILhv0lv3375r08wtuPVg47/ff73/urRXuDHqqi0tHRkZAQfWtAYOiACqRDIFBEDr2ZMT0/DJpVYLHbnzh3YX8lXw263BwIBTBYOhzs7O0HoPJQ1t27dgtv9fv/w8LCqqk1Nj6YrJUm6cOECfHu6qqo3b97Er0XJzs4eHR2NRCLxeDxZoQ+35T/8ipRgMAhppqenA4EArtGcOHECNnbAWjj/fJafn48mxWIxl8sFX2lvNpuxCskKTVHEwMvSuNtGqM709DS+781jFIDcuHEDgcB32AcCAdgZ4/f7m5ubUQdMTk4ih+vXr+PkFry/Cl9OrzNY6tgwOjoqyzJMqkEr37hxA9qFb2XBPJ/Ph9/DazQaR0dHwQGEVoZXZGOxGK5/8ZY0Nzevra2h4y0vL1dUVEACgSf6pI6IEdgK9dKKGBj+hX1IoEhKS0uXl5fh0vLy8sTEBE5QaYHDLYwxwWb0AZ12SSZBhJkYmKZK6O3JcgCMgpfy83a8iNEaj8D59tJxD50gkKzT8SJGkqSzZ8+ih/Ol22w27BTBYPDs2bPC8xVjrLa2FuGoqjowMACTOoLTYp+Cb/1JGCL4+j76xl7cZVKhSv/f1ItZhbg39tGL0//vpUcbTf4xLh29+8r/aN/9nvJ48yx7tBKU/+WjvTKPZY1eyv8oL6GIeaQ/8r/El55wjufV/9m3p1x+ZFtl9NX8n+P3weyQfu/VQ04waU9l9JWDX+x4+TcYYzte+e1X3+zH8/i9w62trdFotLOz8z+soP8TgScgkGYR8wQlJ0mq/2tzOHgYjcaioiKc+MXMcnNztZta4CreIrwU8PDRUL9QuN1gMBQVFZlMppqamlAohCIGrubl5SUr12QywbYSNBLtScvv6hkMhkOHDvEoUqkO1PrQoUPCzATYpt0sgqMUXNL+8I3RaEyWm1Bx/k9sFP4kHie7qjUPbzGZTEVFRQkrlZeXpzWbv9FisST83YAUeWJWwDahf/JpUjzOe/zRJtYH/kQ219XVbWxsNDY2aktJeEbH2xOmZ4xpvTRZyhT7ow5k/SCwaadL5uGMsVQqnpubm9AD9Z02YYjQQSRcevRq0qPfVHr0NXfC59E3xHDfwKuTUrjxf//5eFsMbMGBk9zbSTt27jbw+eNdO3ZJjzbQvPAynvnm4IWXd+757g748j3xGv1NBJ6YQMaJGP0aoIjRTyZcra+vd7vd8BW9+fn5Xq8XvvtESJbsz6NHjz78tjT49ojs7OytfS19ssyfl/MoYp4Xg8nOFAkYDIZr167NzMzwOjjFeynZrwOBF/f+ze4frr74vf8HK8uJGDxHB0Tg2RD4tRAxhw8f/vd//3f4kb9YLAb7VFLn/XAl2+12R6NR+K5e2HSS+u2/GilJxPxqtGPCWux9/El4iU4+WwK7/svfvfT9d57Jv0cLQHv+SHr71qPVor/tZS+8DGbgchL8KtM2bXvhd03PljCV/rwTeM5EjM5iwaYtUVhY+NOf/vS9997b2hNnbm5uc3NzdXV1whWHTUt/3hPgatrzXhGynwgQgVQJPP6NpBf+cD98My/etWPnizv2/BEtCSEQOniGBJ4zEfMMSVHRRIAIEAEiQASIQEYRIBGTUc1BxhABIkAEiAARIAKpEiARkyopSkcEiAARIAJEgAhkFAESMRnVHGQMESACRIAIEAEikCoBEjGpkqJ0RIAIEAEiQASIQEYRIBGTUc1BxhABIkAEiAARIAKpEiARkyopSkcEiAARIAJEgAhkFAESMRnVHGQMESACRIAIEAEikCoBEjGpkqJ0RIAIEAEiQASIQEYRIBGTUc1BxhABIkAEiAARIAKpEiARkyopSkcEiAARIAJEgAhkFAESMRnVHGQMESACRIAIEAEikCoBEjGpkqJ0RIAIEAEiQASIQEYRIBGTUc1BxhABIkAEiAARIAKpEiARkyopSkcEiAARIAJEgAhkFAESMRnVHGQMESACRIAIEAEikCoBEjGpkqJ0RIAIEAEiQASIQEYRIBGTUc1BxhABIkAEiAARIAKpEiARkyopSkcEiAARIAJEgAhkFAESMRnVHGQMESACRIAIEAEikCoBEjGpkqJ0RIAIEAEiQASIQEYRIBGTUc1BxhABIkAEiAARIAKpEiARkyopSkcEiAARIAJEgAhkFAESMRnVHGQMESACRIAIEAEikCoBEjGpkqJ0RIAIEAEiQASIQEYRIBGTUc1BxhABIkAEiAARIAKpEiARkyopSkcEiAARIAJEgAhkFAESMRnVHGQMESACRIAIEAEikCoBEjGpkqJ0RIAIEAEiQASIQEYRIBGTUc1BxhCBRwSMRmNxcbHJZPpVwmEymYqLi41G469SpaguRCBjCeTl5RUWFkqSlLEWpsWwtImYhoaGzs7OkpISrVklJSWdnZ0NDQ2MMUmS2traTp06pU32a3smJyfHbre7XK7e3t4jR45sgUNFRcW5c+eys7N17rVYLLIsO51Oxtjhw4cvXLiQn5+vk/6pXaqrq5Nlua6uTigR3Kbz8efUqVOFhYVCgm/vz1R45ubmLi4uejwe0BxffPFFTU1NWkzq6OhQVTUej0NjpSXPhJkYjcY0mp2wCDgpSVJ/f38sFovH43a7XSflr9ilNHY0q9Vqs9n4Pm61Wpubm7OyshBaQ0ODcAYvPZMDrT0Njz9oTFZWVnNzMwwNeDLDDzyPP2nv9YwxPhI6nU5Zli0WCx9nUidjNpsXFhbi8ThkkvqN6U35dIb7tIkYj8cTj8evX78u6D5Jkq5fvx6PxyHc79u3z+v1zs/PP79PmTabbWBgIF32t7W1hcPhUCgky3IgEIhGo+Pj40/6tNrf368oitVq1XFBXsTYbLZIJNLS0qKT/qld4rsuX6jdbo/FYoFAQJblUCgUi8Xu3Llz+PBhPs23dJwKTz64FBcX+/1+l8u1fXtKSkoePHgwOTmZk5PDj0/bz5kxZjKZBgYGbDYb5JZGs/XNq6urC4VCly9f/sEPfmAwGPQT61xNb9fTKShdl9LY0Ww2WygUOnHiBNgmSdLU1NTGxsbx48fhzP79+5eWltxud7qM334+/f39siyXlpZCVtBlVlZWDh48CGdKS0tlWe7v799+WU8tBxQxQvfZvnPykXCbIsbpdAaDwaampqysLEmS8vLyRkdHa2trnxolKEgY7rePKKH9aRYxsiyXlZXxJZWVlcmyHI1GQcQwxl5//fUnHaT5DJ/5sdPpXFxczM3N3b4lxcXFPp9vamoKgcBTeFdX1xNlbjAY3njjDf1beBEjSdK+ffv00z+1q3zX5Qu12+3hcBhnaKqqqlZXV71er9ls5pN9G8ep8ORFDGPsjTfe2M7wjLWoq6sLh8Pf0nQF2MxP8KTLbLQ/4YHQlAnTpHIyjV0vleK2nyaNHe348eMbGxu9vb1g1aFDh9bW1mKxWHt7O5yBBA6HY/tmpyuHpqamcDiMD0tWq1VRFL5TNzU1wVibrhKfQj4oYoRev33n5CPhNkWMx+PhBykI/t9SVNFnzg/320eUsKx0ipiVlRVZlrGbQXl9fX0+n+/u3bsgYvj5w+zsbJvNVl5e3t3dPTo6mpeXBxOk1dXVY2Nj8LwoSVJdXd3Y2JjL5WppacFxQnuvUD2LxdLf3+92uy9evHjgwAG4WlJSYrPZjh8/Pjg42NPTAyctFsvg4ODExERnZyc/W5uTk+NwONxu99jYWGVlJWMsPz//s88+m56e9vl8DocDZz4OHDhw8eJFt9vd09ODZTHGDhw40NPT43a7r1y5Ul5eLlgI84fCiAWPUyj4DAZDW1vbxMQEn4O27tZfnmo+cuTI4OCgUHdexJSUlHz22WewnATrgJ3cB2d3E5Yu1EKSpKqqqrGxMbfb3d3djQABdX5+fnd3t2AJkAFi3d3dH3/8ccLlJO3IV11drSgKNhxjLFnbYev39/dbLBa0WZKkhoYGl8s1NjZWV1cHs4bgk9XV1W1tbePj48eOHRN4aj2BMcaLGGgR8Ad+FQyg4ipAwtLRNsaY1Wp1Op2qqo6OjsJdgiX5+fk/+9nPoOGgsxQUFCBJhM8Yy87O7uzsnJiYQO+1Wq0Oh8Pn801PT0Pr82aDGciN92RI9vbbbyM66A5wy6ZO3tDQMDo6qqqq0+nExQ6DwdDS0iI0BGMsYQ/Vdr36+vqTJ09iboyxQ4cOff755yUlJWDtkSNHoOMMDg7yDpDMZzDOaOMANpCwOAKmInNEx7sc39H026uyshKiXENDQ1VVFV81MAD8DSdaWlpaZFleXl7G+T+YqkHRnywoGY1Gu90+MTHhcrkaGhqgCwhVy8nJaWtre++999ArtBFSG6sRFB7AtCJOtPT29q6vr9+/fx/HiP7+/gcPHuAmhGTdWdsB+XEEijt06FB7ezvM1CbsaNpujnbCQbJwx+dWWVmJIga7T8JxIRWP0omEKYoYbagHq+7evYuDVENDw7lz54LBIEYV2NeB3RkjIdzLj8g8IsFJ0P8BrNVq5X2YD60NDQ0CIp3+y5eY4nE6RczNmzevX7++sLCAHdtsNt+7dw9UIQzMfOiHYVVRlFAotLS0VFRUBBFcVdWNjY3z588bjcYbN26oqjo7OzszM6Oq6szMDDyIa+/lK1xfXx8MBtfW1iYnJ/1+vyzLH3zwAWPMbrdHIpFQKBQIBMbHxxljbW1tULrH4wkGg/igf/To0fX1db/fPzk5ubS0pKrqwzmSY8eOff3116urq4qiTE1Ngcyqra2VZRnKergAub6+fvToUcZYaWnp/fv3ZVmenJxcXV2FHHgjGWMwTeXxeJAYn8BsNs/MzASDQY/HgzZAFJZlWeCGa58wl7O4uDg5Ocnbw4sYXh+Mj4/L//FRFCUej0NYTFY6b6EkSQMDA9BAAkAowufzLS4uQtt5vV6YvgIy4XB4ZmZmcXExGAwqioLBF/PnjYSTJpNpfn7+9u3bsM6SrO1qamoURcHWDwaD9fX1sIb9UKOAF83NzUWj0YGBgYfT8uCTiqKoqnr//v0PPvgAIwhjLKEnCCKGZwujCxB9ONsfi8XW1tYOHTpkNBoTlo71ZYzZbLY7d+5Eo1Gv1wuynrdEu2q+sbEhy/Ls7Ozc3FwsFrtx4waQMZvNXq8XPGdxcVFV1fPnz9tstqmpKUVRVldXv/7662PHjvFmM8bAc1ZXV8FzZFmG+WdItrq6ur6+7vF4ZFkOBoNwKRUn7+np8Xq90Wj0zp07sA4LC/bgANAQuISq7aHAR9v1+vr6+MWUvr4+mAYGawOBwOrqqsfjCQQC6AA6/f2rr76KRCJzc3MzMzPhcBjjAN86wtOt3W7HTpfM5XgfdjqdydrLbrerqur3+z0ez/r6uqIo/GM02jAyMoJrMSMjI/Pz8+fOncMzly9fBk9jjCULSuAYgUDA4/HwXaCrq4uH2d7erihKdXW1DjEhVqOR/EFWVtbtx5+sx5/bt2+7XK6RkRHowpIkTU9P49aCZN05WQccGhrCuj/s3U6n0+fzwc7xhB1N2815U3XC3VdffRWNRsGdZFkOh8MwlmH30TonYywVj9KJhNjx+RGTNxg7rBDqYeXowYMHOEj19PRMT0+rqopRJVksghrxIwtfYjL/BwthsPN4PGtra5FIBCYI0XgtomT9ly8xxeN0ihiv19vS0hIIBBobG6H4lpaWUCh0+vRp3AKJtcLBmB/CnU5nOBz++OOP4fbW1lZ+7K+vr1cU5fz58wnvxQqDcsI1GrPZfPfu3ampKUmS7HZ7NBrt7u4GnVhUVLS2tjY8PAx/lpeXy7IMSzmDg4Pz8/MFBQUw+N25cwc7Gz8nlp2dDYEP1oMKCgpWVlaGhoYYY729vRgXjEbjzMyM1+vVLuLAyBEIBEZHRysqKsASqMv58+dlWYYpHEmShoeH7927ZzabwdUEbhBP8/PzFxYWLl++DPm89957gUAAnnuwy4GY4yd1oTij0eh2u1GEJSsdOTPGysvLV1dXz549Cyc/+eQTnD2G0aijowMudXV1BYNB2Po6NDS0sbGB9RoYGAiFQqmIGMYYdiSdtnO5XBjdoEXg+bWlpSUYDJ48eRJMcjgcMOyBTy4tLeFOZ4wgjLFknqD1ZH6ZBoro6OgIh8MAIVnpkBL/Kywn8ZZoRQw/PA8NDfn9/uLiYsYYHB87dgweuS5dugTPu2Az2sm7BKxsut1u8GQY7ebm5rKzsyEZXgLlDY/XKTo5P5Yzxvr6+njLgRIsOgg9FLHAAd/1qqurg8EgrJ6Aur1161ZWVhZYe/XqVZi1hSEQLiXzGViaGRkZgVJOnjwZDodx5xDagL4HZ3gRk8zl+IrDNgXQ09hGxcXFEK9u374NTzJAPqGIAW1htVqxHa1W6/r6el1dHRCAKKcTlLq7u1dWVmAbjSRJo6OjoHugTQEm7GKEcJeMGIgGPlYjJeHA6XRCESUlJX6/v729vaWlZX19vaSkBLCDN+oUlKwDNjY2KorS1NQE844LCwvw9JWso2m7OW9qsnAHZHCMAHcSRAzkwztnih6lEwmx4/NxhjdYJ9TzcRJugU6By0nJEEEyfmThS0zm/2Ah6n7wZwi5gvE8omT9ly8xxeN0ipjFxcWioqKFhQXY3gudYWFhoaioSEfEIFnoGHzvdbvd/J+8chdaha9tXV2doii4EAuz9DA9y8cdePDlh08IBLiUA3nm5eVZLJbh4WG0hG+JmpqaYDCIy9IPV0ldLhek7OrqUlW1u7sbl8B4I/lji8UyPj4eDAbj8bjP52tubmaMwZYoiEqQuKWlBWYstHVHj8dsDQZDUVFReXn58vIyhAm4C4752Aq3wJyKoigQZHVKxyL4A3gluKamRpZlaFABNTaKNmd+JZjPU2sk3zmFyXO+7YaGhmChnVeEjDHBnWCF3m63Q0/DoR38EB+y0STBE/j+ybPF9KC5YbJHp3RMDwdPJGLQJ0GYwuZuMAxXGWAtBhahhJryZgs84TkPMhT8jc8/RSfnm1LrALCECgYLbiPA4bsetDg800NTwuOHYC1j7PLlyyDvhDqiz0DY9Xq9RUVFQon8n8mCOCiShC7HV5w3nm+vmpqaUCiEcl8bBtEGqGZ7e7vVapVluampCdqit7cXNpnC44pOUMKscnNzLRbLF198AX4O24QBJshZEDTJiOkYiUXAAUYtmKE8fvx4SUnJ+vp6S0sLTF9BoNYpCDNM2AFBelZXVwMQnY4mOD9mqx9sBcMgBG0qYlLxKG1H4CMhhnQwWxiVeOO1oZ6Pk5BS6BTJIqGQjC9Fmyd2VS1Yj8cDIlgwnu8CyfqvUGgqf6ZZxOTm5uK8LmjYrq4uvib8sRYZX0k+JdYEE2jvxTR84MCTcIDc4c/+/v645gPukpOTc+3atcjjD7wdgwMG2gAyCF4c5bOBlEajEZZaIpHI0tJSW1ubvpoxGAwffPDB/Pw8vDcEUYnPNh6Pw/SJtu7o8YyxioqK5eXlWCwGbzxFIpFURExDQ0MoFMIRV6d0AWlzc7PP54vH44qiPJx5isViyUQM7P6BEYtXDHzX5TNP2I44kOi3ncvlisViqqrOzc3Bwj+EDIEnvPELnsabxPNM5gm8f0KL8DnA/B8+neiUzldZu02Kt0Q7E4M+yc+uaY3BIoSa8imFgviyBH/jK56ik/NNyReKhuE+A6GHYgI44LseY8zhcMBkp8PhwK0VgrVABoZqHZ+pqKhYWVmJx+Ow0Cxso4HS0ffgT97UnJwcrcvxjaId9ZHJiRMnhD1hQjURAvSdkZERh8OBc42wOvPJJ58EAgF4d+nhtj+doNTf3x8Oh2Ox2MbGhqIoKNZbW1v9fn9ZWRkeMMZ0iCUzEq2FA3j/yOFw4CoSrDFBLfDdJZ2CknVAmNKDyem+vj440OlogvPzduqEu46ODkQEt6CvCp4sANnUo/QjIfZHvrvxNuuEeq3g4DuFDiI+mVCWNk/0fy1Y7CmC8QKihP1XW+6mZ9IvYkC79Pb2wpbe4uJivib8sRYZX0nw9YebEPnn6ZGREQjc2nuxqjBXhu8i4nk+nMFJgPjjH//Ywn3y8vJwsvfDDz+ElLxh/HFTU5OiKDabjcvAwn+/kNForKqqcrlcqqrilgU0KTc3t6ioiBc3hYWFq6urbrf74MGDKysro6OjfM6w4qutO3o8PAFMT0/D/mLeveAuGGgxgIIlMEeK6wWMMZ3S0Xjc03PlyhWYCecNQxeH9DjBACZdvnwZ80ldxIBV8Miu03aQs8lk+uijj27evBmNRvv7+8Gd7ty589Zbb/FITSYTTwnuRZ46nqD1ZBQxwsLcwwVyndKRAxwgKK0lvLDQGRRhKpsnjEUINeVdAhbX8G1YxlhTU1MgEKirq+ObVdgMBDnrO7kwlkMj8uYBHHh4ENwGLUcavG6DUPPll1/evn0bv9xBsBa0DoxDm/pMYWHhmTNnVldXcdMPbwCGZjipNVVwOaHifNzgL9XV1QUCAVgWSVhN3gaY6IXNJXAeVmdGRkZwQ4xOUOrq6lIU5fTp0xBU+SoUFxevra11dXW5XC6cANYhJlSHN5I/hgdu2P2G+3l7e3thbh7X6HUKgrXRhKEYJmA++eST+fl56H06HU1wft5InXAHiPh+4Xn8wS0N2OsTAtHxKLCH7wh8JMQQxMcZ3madUK8VHHyn0EHEJ+PLguNk/q8FiykF4wVECfuvttxNz6RfxMAq0urq6traGuwO4WvCH2uRCZUcGhqCvVpQDWg26GDae7Gq8Krhl19+iWe6urpgRyHfaSFMh8Ph1tZWTGkwGHCnJz+Dh+JJGDygrL6+PiGHvXv39vX19fb2ogLDOW1MCftmgsEgbKCD8yDPPR4PuBq/S1qSJJA72rqjxwtDIHRO6GZwFxzzIsZoNE5NTfl8Pr6j6pTO28/nwxgDGvozMVlZWbdu3eLrpX0ShSKEzCVJ+vLLL1VVhflneHtT23Y5OTmDg4O4wAdLkLAbaWRkhHcn0BY4KmMwgiaGYY93V7AKPYG/xLNljJ09e1ZVVbQBb0xYOs9TOxMjaAueldBZEBcGKXxv32q1wltXYDPWlDe7sbExFArxPIeGhmB6Q/A3rPje1JycH7CBueAAEMvQM4UHX56PUGXwJZ/PJ8syWg7W4uoMhCOYt0jmM5WVlePj4++++y6UlezLS0ZGRpaWlvbv3w/J8Bldx+WwUYS4wTOB6vMx5PLly7xW4wk4HA6Y8kTvKi4uXl1d9fv9uOE9WVDSjm3gXTjtBL69traGMJMR01aHN1I4HhkZgX3uuO+turoa3rfAfUjJCkJnwzyxA+KzwezsrM/nwyiaejfHPHXCndAvIJ7A0MB3HwFIKh6lHwkxpGsJgNk6oV7b0EIXToZISIZ84CCZ/wtRhS9dMD6V/isUmsqfScgVAwAAIABJREFU6RcxjLHGxkZVVXF45mvCH2uRCZUsLy/f2NiYnp4uKCjIyckZHh7GTRvae7G2kiRdu3bN7/fX1tbu3bvXZrMpigL7EAURAzvgIKXBYPjwww9XV1f7+vog8Mmy3NjYWFpa2tfXp6oqhhV4y8Bqtb7++utQVjAYtNlsBoOhrKxsdnb22rVre/fuPX/+PEzSGAyGt956y+v18iM3WFtaWurz+VZXV2FrXmFh4aVLl3Avc0tLi6qqw8PDOY8/ly5dWllZgVkE3HoC+aDHw3r2wzcsjh49+v77709PT8diMRgegBgOFbAyBVthwuFwe3s7zk8UPv6m6mSlI2fGGGzOunr1amlpaU1Nzd27d/ErWQXUfJfDnA8ePFheXn737l3tLmOM8qdPn7ZYLPX19W63G98ngq18c3NzCdsOW99gMFRVVa2vr8NjelVVlaIo4E5Go9HhcPj9/urqam0nRJ46nqD1ZGALb8aNj4/jlA/MnyUrneepFTGNjY3hcPjy5csmk6miooJnJXQWfrxsaWkJh8Pnzp0zGo1lZWV3796FV8PA5tu3bz9c9t27dy/vErD3XOg1sLwo9DW+4qk4OTYljmGwcxYcu6CgYHp6GreTC24jwOG7HlxqbW2NRqO8OgRrV1ZWKisr9+7d29PTo6oqdP9k/R12laJjdHd3q6qKAznagBuATCbTiRMnYBi2WCx8wBFcjm+UZO2FMeThO+H79u1ra2sLBoMYbbB0OIBtMfjGAGzcnpqaisfjOM+BGWqDUl9fH3b2M2fO8MtJGLd5mMmICWO20Wj8xS9+we9u5M1uaWmJRqO4/oWPDdFoFHcuJitIpwNCEV1dXbFYjA+tyTqatpsLRiYMtmjYT37yk3379vX29kYikWQiZmNjA8aFFD1KJxJiCOK7G2+wTqjnZQTcAp3i6tWrJpMJXDRhJBR6Ol8cYyyZ/2vB6szEICLIXNt/hUJT+fNbETHZ2dkLCwv4ZMA3A3+sRSb0c8bYiRMnYMsFLFfjKwPae/na4hJ1PB5XVXVgYACeSrUhMj8//9atW7CEHIvFXC5XTk4OvCC9vLwMWyiWl5cnJiYwcMB+NPxW+Ozs7NHR0UgkEo/H+W+VNRqNV69ehfPxeHxlZaWiooI3Eo4PHz48MzODyQKBwNmzZ2H+Br6zORAIgBl+vx/2/Grrjh4P23RgjzC8c/twqRgaAu4SRAw0h7BTBAJostL5KkiSdOHCBfiOfPh2E1mW4elKQM2LGOGuGzduCHsCoAi73Y6Gwb6i//W//hfObMF+1YRtZzabQb0JLSK4UzAYBNTaTsjzLC0tTegJWk8Gtk6nE82GA5RovDNj6TxPrYgxGo2jo6Pgn6qq3rx5E1kJnYUfLyVJOnv2LLoB/03HX331VSwW4zdXgdkCz0gkcvXqVeg1gr/xFU/RyXnb8LdH0LF9Ph9+l6jgNgIcoesxxiCU87uYwdrJyUms/vXr1/ErDJL199raWowzfMTgDTCbzehvwWAQXkSHaYxkLsdXXKe9+Jz9fv+dO3eSiRiYW8XQCuY5HA5VVfkFqWRBSShoeHiYvxGmunmYglfwEZKvTlFR0fr6+s2bN/mVcUQHM0M46QLnR0ZGMKLCmWRNk6wDwl0wj4UCDk4m7Gjabg6J4b864Y43wOv14ksqfERljAnOmYpH6URCDEF8d+MN1gn1WhGTlZV1/fr1WCyG05wJEQk9XSiOdx7e/7Vgk4kYAVHC/isUmsqfaRMxqRS25TRb+yEro9H48LtncFJdp/RkP02X9/ijvdFoNB46dIjvscl+sQ+2jsP3o2jzwTOQDLbj4Ek4kCSpsLAw4SUhJf4JuaXlhxFSKT11zmjhwyc5LUP+aurHydouWYswxrbgTsk8IXU7MeUWSjeZTMLeKcxN5wDaTut7ubm5Ou6UjKdOQSk6uZBDKq4l3KJ1m7KyMr/fjw/0uFPBbrcnqz78/ELCn6LU7lHTGpCbmwtTldpLOi6nTaw9gzkLL49oU6Z4Jpk9WFCK+egQSz2HFFMmc78tdMAtdDQdn8zLy9N2JaFS2piWikdp7xKy1fnziUK9tgpbQLQF5+HtFyqr7b984hSPnw8Rk2JlKBkRIAK/PgQkSbp06RK8loK11n+axGSZcyBJ0ldffXXx4kV4KProo4+CwSDsJswcI8kSIpB2Agn77xZKIRGzBWh0CxEgAs+YAHyRZiQSwT28YNBzJ2Iemv3pp5/KsqyqqqIosVjs1q1bT+EHwp5x+1Hxv94EkvXfLVAhEbMFaHQLESACz5hASUnJ559/fuTIEcGOJ5pgF+59hn8aDIZ33333pz/9aVFREb/x6xmaREUTgW+PQLL+u4USScRsARrdQgSIABEgAkSACDx7AiRinn0bkAVEgAgQASJABIjAFgiQiNkCNLqFCBABIkAEiAARePYESMQ8+zYgC4gAESACRIAIEIEtECARswVodAsRIAJEgAgQASLw7AmQiHn2bUAWEAEiQASIABEgAlsgQCJmC9DoFiJABIgAESACRODZEyAR8+zbgCwgAkSACBABIkAEtkCARMwWoNEtRIAIEAEiQASIwLMnQCLm2bcBWUAEiAARSBcBnV8xTFcRzzafLfxs4bM1mEr/Vgk89yLm8OHDFy5cyM/PZ4zxP3yfXmr8786nN+ft58YT2H5uJSUlnZ2dDQ0N2qyys7Ntjz/Z2dnaq9/GGYPBUFdXNzAwcOXKlaamJv5nw5+0OKPR+MUXX9TU1KTiJwChM9HHarXq/DoPX8qTWiik553Z6XTKsmyxWIQ0z/zPNNY3vXXRaaP0FvREueXm5i4uLno8nie664kSHz16dG1tLR6PLy4ubvqry0+U85YTp9F7zWbzwsJCPB7PzO6QDBHf7pIktbW1nTp1ijEG551OZ7IbNz0vSVJFRcXAwMDY2Ninn35qNBo3veWJEhw+fLijo+Po0aPCXYcOHfr888/fe+894fwz+fO5FzE2my0SibS0tKQyOKWOuLa2dnR0NC8vD27JZBHDE0i9gslS2u32eDzu8/mKi4uFNK2trdFo9KmFj9LS0uXl5UgkIj/+RCKRlZWV0tJSwaoU/ywuLvb7/S6XKxU/aWlpgULhZ/nQBlmWz58/rzNA8qWkaFiyZM+FiEljfZNxYIzZbLaBgQGTyaSTRrik00ZCyqf5Jz+Y6ZcrxB/9xHhVkqSpqan19fXKykqDwZAhv8GURhHjdDqDwWBTU1NWVtbWarc1sEh4awd8u+/bt8/r9c7Pz5tMpm2KGLPZPDMzE4vFNjY2IFLJslxbW7s1IxPeVVxc7PP5pqamBNp9fX3hcLiuri7hXU/55HMvYiRJ2rdvH1Dj4/42Odrtdn60zmQRwxPYZq1hgI/H47FYrKuri88tKyvr1q1bT03EZGdnz83Nra+vl5eXgxnl5eXr6+u3bt3KysriDUv9+I033oC5nCfyE4/HIzzU6g+QWErqhiVMyRuZxmEgYVnbOZmu+urYsIXep99GOmV9q5f4wUy/ICH+6CfGq6nnj7c8hYM0eq+2Mz6p/VsD+6SlCOmFdnn99ddhymSbIgaUBM6am81mr9d779699P4EusvlevDgQUlJCVYqOzt74fHnqU3JY9EJD9IpYiwWS39/v9vtvnjx4oEDB7A8SZLq6urGxsZcLldLSwsuCpSUlNhstuLi4osXL+Jd2dnZ3d3dbrd7cHAQ58+FlN3d3YivpKTks88+S7icZDAY2traJiYmrly5gmMhY8xgMLS0tLgef3h7wGBYNBkdHQ0Gg+fOnQMXgTBaUlICpvIGMMYOHDgA53t6erDigs3AJGHtEBRjzGq12mw2rF1+fv7PfvYzqB1jDAn39/fzcJAAFJqfnw8MhYZAO7u7u0tKSvic0Qa73b6xsbG8vAzPCni+uro6EAh4PB5e2yHJsbGxuro6VOtWq7W5ubmgoCAZrp6eHrfbzdcCC4KDxsbGcDgsCCmn07mxsXH8+HFIY7FYBgcHJyYmOjs7kRhjLDs7u7Ozc2JiYmxsrLKyEhJDs1qt1lRmYnhjtHETBsj29vaGhgaXy5WsFHAMqKnggXz+kiRVVVWNjY253W7er3RETELshw8fttvt6CrgCYjFarWePn36Bz/4QSpWpe66PFW46/jx44ODgz09PVlZWc3NzdXV1W1tbePj48eOHeO7XkKHqa6uHhsbs9lsyCc/P/+zzz6bnp72+XwOhwOaj+8IfI/DuyCBLMsJ24gxlpA5H0kgzUcffXTy5EmIV9h3kpXIGMvJyXE4HG63m3cJ3iphMEtYkYTxh88kGcb8/Px/+Zd/8fl8d+/e7ezs5EcdvL28vPzKlSuCpyXLEMJRc3PzkSNHBgcH8S5EwYcX6PKQcmJioq2tDeO8IGK0YdlgMDQ2Nra1teXk5ICpVqu1o6Pj8OHDaDlguXv3ruAJaIzQLkaj0W63T0xMuFyuhoYGSZISgm1oaGhubsbnIr7XQI14n5QkCbs8H+5wgNPGIrCfb3foFzCsCCIG1mj+6Z/+Ce5KFt+QiTY0PVz6CYfDbW1tp0+fRnHDGDt69CiMEfqROWHk1Ibiurq6cDjc29sLliR0+4TdHy1P70HaREx9fX0wGFxbW5ucnPT7/bIsf/DBB4wxo9F448YNVVVnZ2dnZmZUVZ2ZmQGpaLfbI5GIoiizjz+RSOTu3bvLy8tLS0sejycYDPp8Plg+0Kb0er2YCc5r8XEfptqCwaDH41laWlJVtaOjgzGWlZV1/fp1MGN2djYSibjdbn4pMS8vb3R01Ov1qqo6PT3d09PzsBYwfMqyPDs7Ozc3F4vFbty4Aa5fW1sryzJU/OEAv76+DiuIWpuT1Y5vUaHD19XVybIMs3Y1NTWKoiDhYDBYX18vDMlAwOfzLS4uAm2v1wtL46Wlpffv3w+HwzMzM4uLi8FgUFEU7XwgPKn8/Oc/DwQC1dXVaNvQ0NDa2tr4+DiKGFifhgzn5uai0ej4+DiQ1MH1k5/8RFEUv98/OTm5trYGXQ5LwYP+/n5ZloXFI5PJVFxcDEW0tbWFQiF0FfQHeByBdl9cXFRV9fz58ziqwfIz7ydYYrIDbaQAEbO6urq+vg6qLhgMwiwuXIJSALgsy5OTk6urq+iBfEGSJA0MDEDvAJ/HivBG8l6RDPvx48c3NjbAyRljIyMjqqo2NjaCz99+/MnKykrFqtRdl68v3BUKhQKBwPj4OARoRVFUVb1///4HH3yQzHLoX+rjz8bGBrQXUDp27NjXX3+9urqqKMrU1BTom46ODlVVV1dXJycnYdVPO4Wu00bJmJeVlcmy7HA4oOiSkpIHDx709fUxxpL1cb4pjx49ur6+Do7NBxw+DT+YMcYSViRh/OEzSYbx2LFjExMTiqI8ePDA7XZrmUBx0GUCgcC9e/fgQShZhtgugUAAgkYsFpudnfX5fHNzc0J4cTqdqqryKTGuCt47MzOjDcu1tbWKovT39zPGioqK1tbWpqamtGH5wYMHvCckaxcIAvDQBaFpYGDgzTff1AZ2oXfz8zRQI1VVwSeNRuNDLQ4DB+YJj21fffVVJBIBJuFwGLswthrf7tpjCBewmQnvTRbfME/G2NDQUDgc/vjjj/mToL+vX7++srJy8OBB/BNmaHQic7LIaTab7927x0+BQ4OWlZWBPEro9truLxiZxj/TI2Kgnuh2ZrP57t27sJDW2trKh+/6+npFUSBO2e12VVVPnjwJ9fnyyy/j8fjw8DB4RnV1dTAYtNvtME6rqvrpp59CSuiN8JjOx3r++Pz587IswwSMJEnDw8PQilarVVEUDFUOhyMYDMJ+Tx4r783QmVE0gPf4/f7i4mJY9ZiZmYH+VlBQsLKyMjQ0hDanUju+XL7DM8Z4EeNyudAvoSC3260VMZFIBEeyrq4urN3Q0NDGxsaPfvQjcOuBgYFQKJRQxIRCoebm5nv37kFFGGOHDh1aW1sbGhrizevr6+OZwEMAbE6CpWvQWAKuhYUF7KhGo9Htdq+trRUVFfEQADiqJeEShjl0lfLyclmWwR+Ghob8fj8890uSdOnSJZgLFYZbFL7azIUzQphDPYQxGgY/iL98Kb29vThvZDQaZ2ZmvF4vLn1CKeXl5aurq2fPnoU/P/nkk3A4rN3glQp2k8k0Pz8Pm37MZvPy8nI0GoX4CM0HT06pWJV6x+Tra7fbo9Fod3c39F+IYktLSzg5pO8wCcMxYOGXk2CRHuFD5J2bm8M5J7gFDMNkfBslYw4Lprdv34aHk9bW1o2NDavVqtPHoSz47+Dg4Pz8fEFBwUPvNRqNd+7cEeYycSMnbOzVr4gQf/iCdDDyAyR/C2MMCFy6dAla59ixY36/H9xDJ0MY8zCKjo6OxmIxDJ6tra34IAQp+fASDodBQ/PemywsM8b6+/vhwWl4eBi7sFALvjPqtEt3d/fKygpM2UqSNDo6ura2dujQIYiWfGDhMxSuOp1O3idbWlqCwSDGc4fDIctyWVkZdK6RkREw9eTJk+FwmJ9NFNqdbyM4djqd+fn53scf6Cwg4xLGNx4IqM9YLOb1es+cOYPzWIyx1tbWcDjc1NTER2+dgQyjtDZyMsb6+vqgslgX1DTJ3F7b/XnL03ucHhFTV1enKAoEX7APpq2ysrLcbje/pUCSpOnpaejeQkeFAfvEiROQgxAfec/bv3//0tJSwiEcBifYPMVvR2ppaYH+Bp15cnKSb3ItU8E2PoyCryuKYrVaa2pqgsFge3s75uByuaC+Qg46tcN7tYM3L2KGhoZgUxuEIbyLl27aQqFdAMj09DTey+eMWfGSqK+vD7f3tra2QnzBeKQlDI0Cg2jquE6cOBEMBnnPAWOwIN42PLbZbLwCg/Hb4/FAzwEbIDGuxwnutH0RA/IaezUUypfS1dWlqmp3dzfOq6P92gOj0VhcXFxTUyPLMgp3NBJp6GPv7e0FmVtXV7e6unrp0iVwxaamJlmWYS0mFau0XiTLcsKOyddXuAsDNFRW33LBYQQ+/FWh6WE+AzojfxcYlrCNMJmWeXt7O+hOSZKuX78Ogkanj2NW/EFeXp7FYhkeHubjHiQAJiBi9CsiwMT89THy+eMtcGC32wVKDY8/+hny5HGMx/lRWFYAyELK0tJSWZZB2et4L4Zl6Eder3d1dTUQCKCsF2rBa45U2iU3N9disXzxxRc4fAhg+QyxgjBBJdRIGMjgYdhut8MDvNfr1T6JofF8u2iPYX4Ip/BhJ3vC+IYZ4gGszS0vL8disUgkcu3aNRjXeGnV0tISCoVQUPJuiV4BViWMnIyx6upqRVHgKbGxsTEUCrW2tqINcCC4PWQIKllImfY/0yNi+HGUN5FvMDyPziH4kzCs6sRHxpjn8YcfdPljeGki/ssfHBKam5v9fn8sFnvw4MHAwADuYkELBW8GbSG0PeRms9lisdgvl/PNy42p144vFzs8nOSZ5OTkuFyuWCymqurc3Bws9PK11pqNUQYUBu9SfM68AdiU6LjwhArSG83jWwdvx0bBJoZLmCce4C3CYIPnsSA8wx/09/cLzOPxuMfjSWgV3Mhf0prBZy4cC2EOZ2KEARJGJr4Uo9EIS0WRSGRpaYnfJcAX0dzc7PP54vG4oigPR9BYLKYjYvj8MRPEjm3qdDpv3br14Ycf+ny+6urq3t5e9N5UrErddXl7hLuEKMan1FouOAwmgAP+qtYxsNb8XVBcwjZijCVjXlxcvLa21tXVhQcwoiTr43yJOTk5165dizz+yLIcCoWQOSbj46F+RQSYmIM+Rj5/vAUOtMXBef0MefI64UUbIfnWx6L1wzJj7MSJE+Fw+ObNm/xCEl8RvjPqxF6j0djf3x8Oh+HNHUVRtiliQOppYw44WEVFxcrKSjweh4VU3K2IlvPtoj2ORqPxeByn89njSSltWfpv5pvN5nPnzoXDYZyVHBkZgUeakZERdEVtg8JAltAN0H5+khL2FcC0FuwDS+j2vANgPt/SQXpEDEy14bMa2pqVlXX79m1+AgBW64Gp0FGFYMRjFVJCttCo/ICExwcPHlxZWRkdHbVwH9xOAespb731Vm9vryzLuPMGzdZ212Rt39TUpCiKzWbjyrEUFhZKkiTYrFM7vlzs8HBSuIsxZjKZPvroo5s3b0ajUXjQwVprzUYRAy6Fc57CQhVvAOYGjjs/P/+Tn/wkEAiA9EbzgPDly5fxXr5RdHAFAgHeT2AnBw42mJvD4RAeHGFrwtdff33s2DGHw7GxsfHjH/+Yx56XlwfPH7xVmKHgTqhoMUGyAz5uQhrICm3moxJfCiQ2Go1VVVUul0tVVdxHhWXBvOCVK1dgNYTPGRuCn5/Txw5Xz507t7Cw4HA4YIKqr6/v9u3bfNM/zFDfqtRdl6+vcJcQxfQtFxwG+cABfxWm8XEygDHW1NQUCASEhVGeJM6WQcTQYQ4TMLdu3XrYo9fX12FvrE4f5+2EdcwPP/xQazMm411FvyICTMxBHyOfP94CBxDreG5wXj9DnrxOeNGKGMgWnpqEoJEsLMNepWg0GggEqqqqBPvhT74z6rRLV1eXoiinT5+GiWceJn8MD8M4wAsV5OsOwe3OnTtvvfUWH3P41/4LCwvPnDmzurqKO+SwCny7aI/X19cdDkcoFBoYGACDk8U3zBD2YhcVFQlfBfTll1+GQiHYHdHY2KgoSnt7+8rKCmzt0jYTBhmdyAmFdnV1QcjltxngIpTW7aGa/GMzb3x6j9MjYmAo+vLLL9G4rq4u+GqHoaEhXJVgjOHumSca5sHzsAfCcjLEZWwGcEEYnMDnFhYWcKVckiSY1f/4448fTt/B0jVo/1AoJCxhCt6s0/ZQcXQR8C1tz9GKBj76IzTGmBDaTpw4ARt7c3JyBgcHcd0KVuVgj4VAAJ85oNBwOGy320GR8EAwZ750niEsrAYCgbm5OXxtD+ORNkMYGzBsCaEB2gXS8Li6urr4iVM0prKyMhAI4BI+bk+Dte2mpqZwOMxPacK3YmCswSe5h3sa4NUYHjhPDEtMdsDHTUijM0BiKXv37u3r6+vt7cX1u8uXL8M+Kr4gwRJe0vGXUsTOGHO5XPcff2BDQG9vL2xAhgW71K0SvAh3l+NEFDQ01lfbZYQo9kQOwyMSep92NntoaEh4BRSNTCg0ebCMMZ45SCKfz7ewsHD9+nVoO50+jnbyIxOc5B9/EybTr4gw1mIO+hi1ZuCNTU1NwWDwk08+gTNZWVkXL16El8hu3brFRwb9jiw4BoQXaKOlpaX9+/dD/rCjEXbP8N57+/ZtviwMy4yx+vr6QCBw7tw5r9eL0wloPxzwnVGnXfhkGFRhgkQAOzIywpvd0dGBFeRFDDx78wMZ7JdnjFVWVo6Pj7/77rtgIb+Ohsbz7aI9djqdIOBCoRC8UpQsvmGGuNMFvRQuwcZEEPQw1N67d0+WZXxFQ6gU9gWdyAk5w5g7MzOjKAqsTAnPBpAM3R6q+TyJGEmS/v/2rvenqSz9/ynnff+CviHhRZN5MUlDMjGkyRhCJIQwhIgGY5Q4uJgFJi4Mi2AWF53u0qU6KIHuD8UhGH6NHRBhEKu1/JRFRCq0Xnpve0v7JX7yffbsae+ZyuAqzuEFub295znP83l+nOee85zTmZmZaDTa3Nycl5fn8Xio1Ly2tnZnZycUCpWWlhYWFk5MTOi6TttqyGLkw7zX602lUjMzM0VFRUePHg2FQpTtkhqEAdjtdpumOTExUfj2b2xsbHNzs6qqqqGhIRaL4b7T6fzxxx91XScdk5WgtvHatWvIta10D8ENw/B4PHa7vaamZnl5eWZmJi8vT/AWYU6Fj/7UKWMM+9nGx8edTmddXd36+jqGfx5hu93e0NAQiURgwQICAqQUZQiQY8eO1dbWEmW+dwFDuEE6naa0g+IRYwwlbECytLQ0FArRsq4EromJCcCVl5fX3NwcjUap+vLixYt+v/+rr76i0mPTNAcGBlwuV1lZ2dDQkGmamHxCTR/szW63X7x4MRwOg0m3251IJO7cueNwOGpqatbX17E/iwecR6y6unpycpK2bQtoZL6ryQdIvpe7d+9ils5ut584cWJtbY0P3+gIsf7BgwfV1dVNTU3r6+vpdBpDL89kjrAj79zd3aWSUtBH5ocec+Eqd9Pl5RVaZUax3A1G0AKKRuvr63HAxsLCghBq6BWWGoKxrEmMBHN6y9rd3aUUWeLj1B2mcDRNa29vr66uHhwcNE2Tz+PxJD+AodbbShAh/lBHcr/j6fNN2NtzB1ZWVtbX12tqahwOB5Ye8FKUu14EFdNEL5KYZDI5PDzsdDpPnTqFvdB47eStl6KQEJb5Au22trZ4PE7lw7wgfHYi0QsOULl+/XpVVdWtW7eE5STsEUFgpxIxp9PZ2tqKfbVZa2IaGhp0XcdA5nA4fD5fNBptbGxEES7d7+/vN02TjCdT77yOeB9xOBw4qPDMmTOS+MajMTw8bJrm3tBWUVHx+eeff/vtt+FwmLe6wcHBdDrNhx2ryMwYs4qc6BEWLlCTmD0vGmPs7t278/PzwrYGXpZfc30wMzFYG0PFRjqdNk1zZGSE3oZbW1ux6o9VQ5r2yHQJqxc+r9cbi8VCoRAWpxOJxM2bN2nCg5YG+LiP051jsRgWF6PRaGdnJ5DyeDx03zCM3t5eel0mKLETFZUWwrugMNIXFBRMTU0lk0mcEbe0tITjDXKXjjrd68jhcGALAGB89uwZYVJUVEQIpFIpviMeAaskxmaz/fDDD6ZpZlLmGeAxRF06bbEBDkRfQHh7e5t2dUpcRYArFArR0UxDQ0OJRIL2NNntdgQjaBBvaVQkW1JSMj8/D3tIpVKzs7OoaLPZbL29vYZhCOoQhltCDMcQ37x5kweBv+bjJu5LBki+F4fD8eDBAxhGOp3e3Nysq6vjKSNX45UyNTWlaVrmFCM/DEhgZ4xhYzAd4YBjqfgK91y4yt10eXmpSZzVAAAdzklEQVSFVkIUg7Dd3d3kehKDEVDC4QLpdBovdrzqk8nkgwcPKNRQQ4mOBEfgMUdzYdUfGUBWH6fuGGM4YBq2urGxMTc3xzsOngQmVNwgEUSIP3xHEgMQ6POtGGPHjx9fWlqCy/BxT0Iw05HJ/fmJXkSGra2t1dVV0Ec+BwYk1ouwjHkIXdcRQLCZdGdnhz/cC6QEZxSCCYXEvXddCg7RaHRiYsI0TWzVEYDlnzQMA5v2syYxmLangYwHsLm5me4LYx/Y5vWSeU3TFdilHwwG99yWtw0+vvE6RazTNA1Wl0qlFhYW+MN1kK9TNJAPZFaRk3rs6OgwTZNeaHHfyuwhJokmGBLRPJCLA0tiwI3D4aioqMiMKYyxX/OrXRQfJfSzwiH5LbRf5Mdut5eXl2eVJbMv7HTgl0gzn8n9jtPprKiooAGbb/grOyIAMzdH8L3kfi1BWEIkdynk9PmTY/ju0EpYMOYf+J9d2+32zKVroXdSinBf8lEOi6QhvsqFq18ksr8H9se5w+EoLy/nPcJK9TlytQ/MczHa4rd/OfKAx6wEkcef/cGIorqssWXfBCEFjVKS2EWw/Mq+iA4urPSCGdzMF9RMYK2eFDrCR6uBw+VyZQU2K5Ecb1rZhtDc5XLxFZ/0bXt7+5s3b+iISLovuYBq3jVyys0ev4ZBu7Ilve/vqwNOYvbHxC+2oiTmF59UD1ghcOnSpUAggHMIcCwBVbpYNVH3FQIKAYVALghQEpPLw+qZ/wECWJ96f6lD7iI0NDREo1E6Yif3hjk+qZKYHIE69I8dP3783//+N4r/U6kUFuMPvVRKAIWAQuAjQEAlMR+BEv7Dwt27d03T5A8j/c93H+LqoNYosvJ+OJKYXKYos4qnbgoIlJWVfffdd+fPn89xmUxorj4qBBQCCoFMBN5pRSazubpzsAjU19d7vV7ahHuwxD82aocjifnYUFP8KAQUAgoBhYBCQCHwwRFQScwHV4FiQCGgEFAIKAQUAgqB/SCgkpj9oKbaKAQUAgoBhYBCQCHwwRFQScwHV4FiQCGgEFAIKAQUAgqB/SCgkpj9oKbaKAQUAgoBhYBCQCHwwRFQScwHV4FiQCGgEFAIKAQUAgqB/SCgkpj9oKbaKAQUAgoBhYBCQCHwwRFQScwHV4FiQCGgEFAIKAQUAgqB/SCgkpj9oKbaKAQUAgoBhYBCQCHwwRFQScwHV4FiQCGgEFAIKAQUAgqB/SBwwElMaWnprVu3pqen//GPf+AHzcGU1+tNJBItLS2Msbq6ujt37hQUFOyH34w2+fn5nZ2dN///z+v1njhxIvOXSzPa/e9uVFVVaZrm9XqFLktKSm7cuNHZ2Zmfny98BaFu3LiB32sUvv2YP54+fXpgYGB2dtbr9RYWFr4rqw6H4+9//3tTU5O84XsyJ5vN1t3d/Ze//EXe+wF+K5FX+C37A+w0F1Lqp3AYY/sAwcrZc8H8UDwDAUdHRxlj/PWhYP4AmZS4p8SpD5ABRYoQOLAkxmaz/fDDD6Zp6rquaZqu68lkcnBwEPkEP+oMDw/ruv5Ovw9O7OKn5EdGRjweD27CmEzT1N7+xePxdDq9trZ2/PhxvtUHvLaKay0tLYlEwjCMxsZGgb3GxkbDMCjtE779OD86HI7p6Wn8wKSmafF4PJFIdHd3vxO3lZWV0Wh0dnZW3uoAzcnj8YyMjOD3yY4cObK2tvb8+fP3+nNlvGiCvDwzkijJU3ina56+0LC5uXlqaqq4uBj39zF+CwQ/gY/7AMHK2Z1OJx+1Di84fOLCX78niSQW+556lJDlmZG4p+DUEoLqqwNB4MCSGLfbbZrm2NiY3W5njNnt9rGxsUQi0d7ezhjjRx273f7FF1/sm3vBevAxGAwSwcuXLxuGMTMz85HMx1jFNSQx6XTa7/cT87jw+/27u7vxeBxzV8K3H+fHrq4u0zR7e3vBnsPhCAQCmqbV1NS8E8NffPEFTEjS6gDNSRioPvvss//xT2Py8vLMCHYuQSP3r3j6Qiuv16tpGs2eSp4UGn7CH/cBgpWzvw9tfhDk+cSFv35PzOxDBe+JE2FmTq5Q3qnfHz+KMhA4mCQmPz9/fn7+1atXRUVFhOzJkyffvHkzOTkpJDH19fUej4eWk+x2e3d399zc3E8//VRbW4vmBQUFHo/n1KlTbW1ts7OzDx8+vHDhAmOsvr7e5/Ntb2+HQiGstmQmMTabLRQKvXjxwuVynTx50uPxVFZWDg0NBQKB/v5+6heZltvtnn3719bWZpX0nD59+v79+4FAYGho6OjRo+AQlEtKSvr7+4WvGGMFBQV0/8KFC1mXk1paWjRNW1tb29raKi8vB1nGWGVl5fb29vz8vKZplMRkRUkQwe120/Bvs9laWloePnw4Nzd38+ZNXurCwkKfzxcIBAhV6vrChQsPHz6cnZ1ta2traGjgl7qOHj0KDG/fvk0gUEN4OD8KMsZaW1sTiQSto2WlABjPnTt3//7927dvQ+80S2ez2RoaGh4+fCjojk9iyJyEhUUsMBKpTCViOS8UCm1vb/t8vvr6elBoa2sjuY4ePXr79u1AIDA8PEwDPB6rr6/n4RKMx263X7lyhUhRE1CGmOfPnyd5M5mhKGnVS1VV1fDwcCAQ4DVCBEmEtrd/mfTpATSZmpoyDOPOnTvgGYPHyZMnszpOVlUSQfgp7+MlJSV/+9vfaG2UOOdRZYzZbDby95aWFkAK6BobG7u7u6enp8+ePSt01NnZWVpampVPK6/BUsj9+/czvYNHe2xsDGEEPVpR+0Vnz4xaIEg48BrkpYNqTp8+jQgJhyWU4KdkeFbOIolUbW1tvI/jSYoVmS4jLCFREnP8+PGenp6TJ0+CeZvNdvnyZZ4y3bcKSpnYSiyWIMq0Q7QiThhj33zzzV//+tfPP/+cMZb5PGOMD0H37t27cuUKz3l5efn3339/9erVGzdu8LFC4p68D0rAF4aJyspKj8fDcw4xJTqqr6/v7OyEmubm5rq7uyn+E0S/hYuDSWIwgTY+Ps5DZrPZysrKMEHNjzqjo6M02hUVFS0sLBiGEQwGX758aZpmT08PuUo4HI5EIsFgUNM0wzCam5s9Hs/Tp091XQ+Hwz///PPZs2flSYzX600mk7quL7/9SyaTa2tryLQwVWCa5sLCwvLysmmaU1NTmeUpPT09pmm+ePHiyZMne2xHIpEzZ85QWra9vf3ixYuFhQXTNNfW1lwuF2PM5XI9f/48mUyiU6ys0VhOECGJ+de//hWLxbq6uuh+X1+fruvj4+O0nGSFUn5+/qNHj0iEZDIZCAQwkXDv3r1kMrmysrKwsJBIJEjqM2fORCKRaDT65MkTHnBIZJpmNBoNBoORSETXdYrgzc3NmqZtbW0JIBDPjLG+vr5kMtnf309Rlf/WigIUFI/HY7HY9PQ0hUUMaSMjI6ZpLi8vB4NBwzBIiqzmdOTIEWR+/MLiwMAAYyyrEs+ePfvzzz+Hw2Fd158+fbpnWoIt/fGPf9R1HVhtbW3R6hgee/36taZpwWBwa2srmUxev36dl5cxNjk5+fLlyy+//JIxdu7cuZ2dnfn5eRhYR0eHYRgdHR0krxUzVr1AonA4DI1omtbc3EyOg5IF8BN8+5dJn7gtLi6emppaW1szTTMUCt2+fRsp6c7OjqZpy8vLKysrqVTq8ePHYN5KlUQwM6OFqSMjb2pq0nUdthSNRg3DuHTp0l4TLEfCmFdWVnZ3d0dGRmw2G9DWdd00zdevX3/zzTdCR1Z8WnkNY6y7uzsej798+TLTrqxcwIpaLs6eGbXIJjM1yEsH84jFYuFwOBgMxmIxXdefPXv25s2bJ0+e8IZns9nkzpI1UgWDQfJxRACKzFldRjAwsl68d+F9lV7DMieYrYJSVmwlFguIstphUVHRq1eviBMYz6NHj2w2W9bnIXUymaQQNDg4uLOzc+7cOfQyODioaVp/f3/WWJHVPQmWAxkmJDoaHR01TTMWiy0sLLx48SKVSlH8563ok78+mCSGV1tWyLKOOoyxu3fvapqGCRibzTYxMYHpHBAkldTU1GiaNjw8jBThxYsXFKaFgYcxhuUkuJDX6zVN89q1a+AKntnX14dBNx6P07tyb2+vrus084HnS0pKVldXx8fHMTCfP38+FothXMToi5QL1AzDQEVqX19fIpG4cuUKdZpMJrMmMfF4/Pr16/Nv/zBCOJ3O58+fz8/P9/T0UBJjhVJ9fb2u6z6fDx35fD7wUF5evrW1RZ585cqVRCKBKqL79+8/f/68tLQUw8bS0hJKQOD8i4uLeA8rKipaW1tDgCsoKEAyhPSotLR0c3MzM0I5HI7Hjx/v7u6Gw+Hbt2+jCzAmoeD1end3dyn14Q2ptrY2HA7T+tTVq1cTiYTb7abQAGXxOTG6Y4yBfyQ9EiViuKU4zttSQUHB6uoqpU1Iebe2tioqKvAYfQXoAoEA9Y4Lt9u9s7ODqaC+vr7d3d1oNIo3rYGBAUy/8fJmZSZrLxgzyDsg7MrKSkFBgUCQMYYkBixJJuczl5MovWCM+f3+aDRaWVkpUSUvvqAUPomZnZ3d3Nw8duwYYwy2BOjcbrdhGOQ1Pp8Pa5FA++XLlzSRI3SUlU9JbKmoqNja2pqYmIBT19bWaprW19cHPS4sLMDOeReQUMvR2SEFRS2JBnnpoE1iFfFnc3MTzgUTxUq63FmSyWTWSGU1QEpchjcwurbZbI8ePSK1ut3ueDyOQgISRxKUrOKb4BFECnMYVkHJ7/cTJ42NjbFYzO12S+xWCEGoR0RQpWiM4My7jyQIECyUIWUFH5bDj01ZhwkrHQGcnZ2d3//+9/TKR/UbPFaf/PWHTGJQR/n06VN6d3e73cgkYAc08MNiUO8phAN8pMJeXddTqdT8/DymW4TQ/OWXX758+RJBMxgM8iWcmAPMnM2DBdjt9oqKitra2o2NDUQigXJLS4uu6xhiA4EAjYv07kKykEmhJsbr9XZ1dcViMZT3wuu6uroo7ZOghNzuyZMnwj4ghOO1tbWKigrqTrgoLi6uqqqamJgAq01NTfF4nJyNDx9NTU2GYfAzDbOzs7yARBkT3ZiFSqVSCwsLKK+WUBBg5P2fyDocjsrKyqamJlqVI3DAJ70+ogkSDpozIzqZSuTFpPwYo0Imz62trYZhuN1uwQKRKPC2hB4RtX0+3950wtOnTx8+fLi5uXn9+vX8/PzFxUUYsyBvZpSkYY/vxePxCPVSPT09KJYXCP6aJIZXsdfrBf1MWLIagySJ8fv9mIUirwdcgtcgQfd6vZlok0IF9WHMAJ8SrxHQw0AVDAYzRSN1SKgJbAuBi1gVpBB4wMQMOKcmmaEDRPgJb2GE2wMkq7PwDsJHKqG54IxYrRbiHm9g/LXb7U4kEh0dHYyx2dlZobQA7xWvXr3KDEoSbDP1S+BkKovssKWlJRaLgZPBwUEkNJLnBalhD4uLi/n5+TBCvPQKzAgK5d2Th0UgzoMfCARopjZT1ySpREdkn3i4urqaXvWp+W/h4kMmMViESv/3H6YfhFgAi8HoIlgPPq6vr6MGYnFxMRKJnD59GsoTbIhiOk9Qrua6urqNjY1UKhWPx/deDZPJpFUSg/oPVOTwhcaCLNQdJTF4LcPcht/vh//TOC1BiTHW2dkZjUZTqdSbN29GRkaoWqWurm5zczOdTtMyDfotLCycmZlJvv3DHiKMVa2trXwJDu+xHo8nlUr9t5bS/AhHEtGF0+ns6enBClRFRYWEgqAg3v8h3fb2djqd1nV9b443lUohFyRwwCcfoxljvb29tC4JlqyUyIspJDF8FyBCehQsEEaVCQhyl6dPn1ZXV79+/bq9vX12dnbvhRUzAUgKBXn5qCTpRUgRGGM01SEQJIOHCDx9UhYuBEUITxIaElXyBAUOiT3GWGFh4ezsbCqVMk1zZWUFtWgYyQQbS6fT+0hiEEAkXjM8PJzZUTAYlLiAFbX29vZQKJSLswvaFPDhNcjDSCaHmwIRwfA6OzutnIV3EAo7QnOkgPSklcvwBsZfHzt2bHNzc3JyEhd88k0SZQ1KVtjSPGumZzHGJHaICSq/308X8ucFy2eM+Xw+rCj5fL43b97Qmy3vFBJd8LAIxAn83IeJ3JOYTJYI+U/74mCSGBiusDMWuwqxxE5BkB910GpqaqqK+6usrHQ4HFm9V5LEUBypra3d2dkhFxJsCC/BwWAQ6fZedbDwOigoG1MaoVAIyQFvJQJlsk6EBp6yIAt1wTfx+/1bW1uNjY3b29uDg4P8iokEJZCy2WwnTpwYGBjQNG17e7u6upq6KCsru3XrVjgcRkURrQtcvHgRz5Bb8q8vwlcdHR26rns8Hk5LVWVlZTx0fP0T9X716lXTND0ej4SCACPv/5hn+umnn7DCxcOY1ZzQ76VLl3RdRzkF7kiUKEliOjo6YrFYa2sriYO6lqzDqhBoqInP59vc3Ozv79/Y2Dh27Jjb7Q6Hwz09PXt5JxbdeXmzMkOWzA85WGrhFQ1uW1paBIJoRd5B6iYO6UJQhPAkAS5RJZHifRw3+SQGd5xO5+XLl589e7a7uzs8PAzHXFpaOnHiBG9mTqeTdzq+C1xb8SnxGgxR3377Ld9RcXExmOQ1TsQl1ILBYC7OLkgh0SAvI2/zlGRnNQm5s1BqgmyJyu0FuyUbkLgMb2D8NWIL5ho1Tcs8NoLkEoKSBFvBI4gCY0xuh4ODg69evbp8+XIkEkEyJHmepCb6APOf//zn4uIi6mnwFdmDXBc8LAJxPuYHg0HM94C4oGtixkpHmeAASd48iMinfXEwSczeIuX09HQ0GuX3DmBxkSpIqMKD3kIQuVZXV6ke3mazob5a0ChCQC5JDAprdnZ2UGcDG6JwzxegTU5OhsPhsrIysqHp6WlUR5LKeZtjjPFWIrFOv9+/vb1dWVkJOpjlkywnMcawioS6VOxJpmFDgtKf/vSnvZJMqj5pbW2Nx+Mej+fChQvT09Nff/01z8Dw8DAPI76anJzEiw78FvkTvhofH8dXGLz5r+x2O5/B4PCe58+f86rkdydJKAgwCv5PNkO1sfKZmKKiovX1daqwhiASJQqBgMcnE5C+vj4s4ggDEp9eoEf6X19fH4lEwuEw6pPKy8vD4fDKygqtPfHyZmWGD0kUztrb2+PxOF8M7vf78coIE6UVB+GFj4/CxCQuBEUIT5I1SlTJExQGaZrkKCwsvH//Pi1Ngr21tbUjR45MTk7yXsMYQyFCJtp8R1Z8Srymo6MjkUjw6MGeMzVOLiChlqOzC1JINMhLlzUMZjUJUhCaU8ItzK8ISQxfe44lLaQ7EpfhLZa/Zoy1t7fruv7q1SshDoAlq6AkwVbwCB4ZuR2eO3cuEonMz88TJ5LnBcuH4c3Pz29vb2uaxtsJb2yCQvkgwMMiEOeBzdFyrHQEcPgFKb6ah8fqk78+sCQG217W19fr6uqcTucf/vCHjY0NmhjgfYySGMYYTpeZmJgofPs3Nja2ubmJNyQqgKC0l09iFhcXXS5XXl4ejIneNRljp0+fjkQiOCfG6/WmUqmZmZmioqKjR4+GQiGak2hoaIjFYui6tLQU2+co3YHikfTsbfA5c+bM7373u1AolEqlEEQk1tnQ0KDreigUqnz7FwqFMDEuGBNv0Nijnk6nKfHnEbNCiRfB6XT++OOPuq43NjZiwSIUCpWWljocjv7+ftM0u7q6UH+naVp7e3t1dfXg4CA2XrlcLpvNNjMzYxjG3mbOI0eOdHd3G4aBJIa+8ng8dru9pqZmeXl5ZmYmLy+Pl+j69eumac7NzZ06dcrhcNTV1S0vL2NpT0JBgJH3f/jkgwcPqqurm5qa1tfXCUYeHDInOpmmvb2dXrKLi4slSkQgQPntZ599xtsSsmHDMDweT15eXnNzczQaRS2tJH7xgKD8cHV1dXd3F8VSwD+dTiOzp4VwGpZGR0cFZugrPko6HI6FhYVoNNrc3JyXl+fxeGjyCYYUiUQuXLjgcrkGBgaSySR5B09fYJVK4HHQHx+v+XlBiSp5gu3t7YlEYnx83Ol01tXVra+vIx9Fc3But9sbGhoikQhsnrwGRuvz+aLRaGNjYybafEdWfEpiC2o8iYeLFy+Gw2Ecy2nlAhJqxLbc2SEFRS2JBnnp4A70/pMJBeW1cmexmonp6+szTbO/v9/pdLa2tkajUTwpcRneQ/lrsvZ0Os2/8JA4VkFJgq3gnkQKdaxQVtagROGUOJHYrRCC0EtXV9fu7q6QVfPuI9EFD4tAnI/5OVqOlY4ATjKZHB4edjqdp06dWl9fpwH34sWLe5UJX331FQ/ap3p9YEkMY+zs2bPr6+uon0ilUisrKzQxk3XUgS12d3fHYjGsUkej0c7OTgrugvdSLL53714qlUJYhDHRV9DT4OAgvvV6vbFYDMlHOp1OJBI3b96kWQQUlKDrzc3Nurq6TDV7PB7DMNLpNHaZ7hWsYA5QYp1YgqVWgUAgFouRLNQFb9CMsa6uLqqM44cNCUroiNAzDKO3txfSNTc3Y4E8nU6bpjkyMoI9F9XV1RsbGxB5Y2Njbm6O9hPu5Xnz8/NQXzQaXVpaotXogoKCqampZDIJHJaWlrIeiNzZ2bm1tUUGsLGxQZBaURBg5P2fzoCGCFNTU5qmYUojqzmhrVDuAMOwUiJjDDt+0+n06OioYEsCz6FQCNXikvhFyqWL0dHRLe4coK6uLn4THC9vVmayJjGMsZKSElJWMpl88OAB9MsYQ75FKsZGYvDDC0sc4gKFO+l0GohJkgMBlqzG4HA4pqamYAmmaT579owqroqKisgfU6kU37y1tZWMlow5E22ecwmf+BEJ8g6KLQJ6qVRqdnYWpfG8C+AwKnIBCTXeuqycfe/9no9aAg+CBklAmAeFjkwoKImRO4tVEsPLaxgGtuvjPCReqMePH1Pc4y2WvwbPg4ODmeXJJI5VUJJgK7FYuR3ioAo6Jgo5VtYgJoQgcIs0TiiQ4JmR6IKHRSAuxHwe5FAolHWYkOgIsWV1dRWOhrdT8D80NJRIJHB4AeH/qV4cZBIDjJxOJ+pacocsa0WFvLnL5aIj0iVPkg05HI6KigoK9HyT4rd//B3hGrta3vUoervdXl5enrVHgX6OHyUoFRcXC0UqoOlyuSoqKrBCx/ciEdnlcoGUsO1iL/HHxodfxMHpdFZVVWV9LEcKPKsSxfGP/eK1RIkOh6O8vDwTJdDcB8+/yIzkATkzQkMrX4Op4NQioYmE/jtZbC6wOJ3OrOYntyUrYxYEyfGjxGus0JPEFitqOUKXSdmKhxylEx7bn7OQywvUJC4jPEkf/X4/LZXSTeHCKihZYSuxWLkhCf3iYy52yxirqamJRqOYQOXpyJnhn8zxmkDG/lBKWIXmWXVEGbzE0QQ6n+THg09iPiqYKIn5qLj6CJmx2Wz37t0bGhrCWM6ftfMRcqtYUggoBD42BM6ePRuJRGhD8sfGXu782Gy2sbGxzF3iuVPI5ckzZ86EQiEsVhQUFOzjR1ooicmlu0/4GZXEfMLKfTfRrl27pmkafsKTP2vn3aiopxUCCoHfGAJHjhxZWFhIpVJ0NuPhBQAn9fHHA74nWfaqQAOBwO7uLo50R/ndO/WlkhjA9YknMb/xebZ3cgmcbfX1119/9913FRUVVDn0rkTU8woBhcBvCgH8vtWf//znA1w9/1AAnjx58vvvv6eTxt43Gy6Xq7Ozs7GxMev6u7z3rGtM8iaf5LefeBLzSepMCaUQUAgoBBQCCgGFAGNMJTHKDBQCCgGFgEJAIaAQOJQIqCTmUKpNMa0QUAgoBBQCCgGFgEpilA0oBBQCCgGFgEJAIXAoEVBJzKFUm2JaIaAQUAgoBBQCCgGVxCgbUAgoBBQCCgGFgELgUCKgkphDqTbFtEJAIaAQUAgoBBQCKolRNqAQUAgoBBQCCgGFwKFEQCUxh1JtimmFgEJAIaAQUAgoBFQSo2xAIaAQUAgoBBQCCoFDiYBKYg6l2hTTCgGFgEJAIaAQUAioJEbZgEJAIaAQUAgoBBQChxIBlcQcSrUpphUCCgGFgEJAIaAQUEmMsgGFgEJAIaAQUAgoBA4lAiqJOZRqU0wrBBQCCgGFgEJAIaCSGGUDCgGFgEJAIaAQUAgcSgRUEnMo1aaYVggoBBQCCgGFgEJAJTHKBhQCCgGFgEJAIaAQOJQI/B/xLBKaZ4sF5QAAAABJRU5ErkJggg==;" vertex="1" parent="1">
          <mxGeometry x="-100" y="-80" width="748" height="215" as="geometry" />
        </mxCell>
      </root>
    </mxGraphModel>
  </diagram>
</mxfile>
